solid CATIA STL
  facet normal -1.000000e+000  0.000000e+000  0.000000e+000
    outer loop
      vertex -2.500000e+001  5.000000e+001  0.000000e+000
      vertex -2.500000e+001 -1.000000e+002  0.000000e+000
      vertex -2.500000e+001  5.000000e+001  1.400000e+002
    endloop
  endfacet
  facet normal -1.000000e+000  -0.000000e+000  0.000000e+000
    outer loop
      vertex -2.500000e+001  5.000000e+001  1.400000e+002
      vertex -2.500000e+001 -1.000000e+002  0.000000e+000
      vertex -2.500000e+001 -1.000000e+002  1.400000e+002
    endloop
  endfacet
  facet normal  1.000000e+000  -0.000000e+000  0.000000e+000
    outer loop
      vertex  1.750000e+002  5.000000e+001  1.400000e+002
      vertex  1.750000e+002 -1.000000e+002  1.400000e+002
      vertex  1.750000e+002  5.000000e+001  2.842171e-014
    endloop
  endfacet
  facet normal  1.000000e+000  0.000000e+000  0.000000e+000
    outer loop
      vertex  1.750000e+002  5.000000e+001  2.842171e-014
      vertex  1.750000e+002 -1.000000e+002  1.400000e+002
      vertex  1.750000e+002 -1.000000e+002  2.842171e-014
    endloop
  endfacet
  facet normal  0.000000e+000  0.000000e+000  9.999999e-001
    outer loop
      vertex  0.000000e+000  0.000000e+000  1.400000e+002
      vertex  1.500000e+002  0.000000e+000  1.400000e+002
      vertex  1.292756e+002  6.500000e+000  1.400000e+002
    endloop
  endfacet
  facet normal  0.000000e+000  0.000000e+000  1.000000e+000
    outer loop
      vertex  0.000000e+000  0.000000e+000  1.400000e+002
      vertex  1.292756e+002  6.500000e+000  1.400000e+002
      vertex  2.072444e+001  6.500000e+000  1.400000e+002
    endloop
  endfacet
  facet normal  0.000000e+000  0.000000e+000  9.999999e-001
    outer loop
      vertex  0.000000e+000  0.000000e+000  1.400000e+002
      vertex  2.072444e+001  6.500000e+000  1.400000e+002
      vertex  1.781694e+001  7.047049e+000  1.400000e+002
    endloop
  endfacet
  facet normal  0.000000e+000  0.000000e+000  1.000000e+000
    outer loop
      vertex  0.000000e+000  0.000000e+000  1.400000e+002
      vertex  1.781694e+001  7.047049e+000  1.400000e+002
      vertex  1.530708e+001  8.613381e+000  1.400000e+002
    endloop
  endfacet
  facet normal  0.000000e+000  0.000000e+000  9.999999e-001
    outer loop
      vertex  0.000000e+000  0.000000e+000  1.400000e+002
      vertex  1.530708e+001  8.613381e+000  1.400000e+002
      vertex  1.353811e+001  1.098478e+001  1.400000e+002
    endloop
  endfacet
  facet normal  0.000000e+000  0.000000e+000  1.000000e+000
    outer loop
      vertex  0.000000e+000  0.000000e+000  1.400000e+002
      vertex  1.353811e+001  1.098478e+001  1.400000e+002
      vertex  1.275196e+001  1.383693e+001  1.400000e+002
    endloop
  endfacet
  facet normal  0.000000e+000  -0.000000e+000  1.000000e+000
    outer loop
      vertex  0.000000e+000  0.000000e+000  1.400000e+002
      vertex  1.275196e+001  1.383693e+001  1.400000e+002
      vertex  1.305615e+001  1.677976e+001  1.400000e+002
    endloop
  endfacet
  facet normal  0.000000e+000  -0.000000e+000  1.000000e+000
    outer loop
      vertex  0.000000e+000  0.000000e+000  1.400000e+002
      vertex  1.305615e+001  1.677976e+001  1.400000e+002
      vertex  1.951196e+001  3.849479e+001  1.400000e+002
    endloop
  endfacet
  facet normal  0.000000e+000  0.000000e+000  1.000000e+000
    outer loop
      vertex -2.500000e+001  5.000000e+001  1.400000e+002
      vertex -2.500000e+001 -1.000000e+002  1.400000e+002
      vertex -5.684342e-014 -1.000000e+002  1.400000e+002
    endloop
  endfacet
  facet normal  0.000000e+000  -0.000000e+000  1.000000e+000
    outer loop
      vertex -2.500000e+001  5.000000e+001  1.400000e+002
      vertex -5.684342e-014 -1.000000e+002  1.400000e+002
      vertex  0.000000e+000  0.000000e+000  1.400000e+002
    endloop
  endfacet
  facet normal  0.000000e+000  -0.000000e+000  1.000000e+000
    outer loop
      vertex -2.500000e+001  5.000000e+001  1.400000e+002
      vertex  0.000000e+000  0.000000e+000  1.400000e+002
      vertex  1.951196e+001  3.849479e+001  1.400000e+002
    endloop
  endfacet
  facet normal  0.000000e+000  -0.000000e+000  1.000000e+000
    outer loop
      vertex -2.500000e+001  5.000000e+001  1.400000e+002
      vertex  1.951196e+001  3.849479e+001  1.400000e+002
      vertex  2.094180e+001  4.109592e+001  1.400000e+002
    endloop
  endfacet
  facet normal  0.000000e+000  -0.000000e+000  1.000000e+000
    outer loop
      vertex -2.500000e+001  5.000000e+001  1.400000e+002
      vertex  2.094180e+001  4.109592e+001  1.400000e+002
      vertex  2.332098e+001  4.287069e+001  1.400000e+002
    endloop
  endfacet
  facet normal  0.000000e+000  -0.000000e+000  1.000000e+000
    outer loop
      vertex -2.500000e+001  5.000000e+001  1.400000e+002
      vertex  2.332098e+001  4.287069e+001  1.400000e+002
      vertex  2.622172e+001  4.350000e+001  1.400000e+002
    endloop
  endfacet
  facet normal  0.000000e+000  -0.000000e+000  9.999999e-001
    outer loop
      vertex -2.500000e+001  5.000000e+001  1.400000e+002
      vertex  2.622172e+001  4.350000e+001  1.400000e+002
      vertex  1.237783e+002  4.350000e+001  1.400000e+002
    endloop
  endfacet
  facet normal  0.000000e+000  -0.000000e+000  1.000000e+000
    outer loop
      vertex -2.500000e+001  5.000000e+001  1.400000e+002
      vertex  1.237783e+002  4.350000e+001  1.400000e+002
      vertex  1.750000e+002  5.000000e+001  1.400000e+002
    endloop
  endfacet
  facet normal  0.000000e+000  0.000000e+000  1.000000e+000
    outer loop
      vertex  1.500000e+002  0.000000e+000  1.400000e+002
      vertex  1.304880e+002  3.849479e+001  1.400000e+002
      vertex  1.369438e+002  1.677976e+001  1.400000e+002
    endloop
  endfacet
  facet normal  0.000000e+000  0.000000e+000  1.000000e+000
    outer loop
      vertex  1.500000e+002  0.000000e+000  1.400000e+002
      vertex  1.369438e+002  1.677976e+001  1.400000e+002
      vertex  1.372480e+002  1.383693e+001  1.400000e+002
    endloop
  endfacet
  facet normal  0.000000e+000  0.000000e+000  9.999999e-001
    outer loop
      vertex  1.500000e+002  0.000000e+000  1.400000e+002
      vertex  1.372480e+002  1.383693e+001  1.400000e+002
      vertex  1.364619e+002  1.098478e+001  1.400000e+002
    endloop
  endfacet
  facet normal  0.000000e+000  0.000000e+000  1.000000e+000
    outer loop
      vertex  1.500000e+002  0.000000e+000  1.400000e+002
      vertex  1.364619e+002  1.098478e+001  1.400000e+002
      vertex  1.346929e+002  8.613381e+000  1.400000e+002
    endloop
  endfacet
  facet normal  0.000000e+000  0.000000e+000  1.000000e+000
    outer loop
      vertex  1.500000e+002  0.000000e+000  1.400000e+002
      vertex  1.346929e+002  8.613381e+000  1.400000e+002
      vertex  1.321831e+002  7.047049e+000  1.400000e+002
    endloop
  endfacet
  facet normal  0.000000e+000  0.000000e+000  9.999999e-001
    outer loop
      vertex  1.500000e+002  0.000000e+000  1.400000e+002
      vertex  1.321831e+002  7.047049e+000  1.400000e+002
      vertex  1.292756e+002  6.500000e+000  1.400000e+002
    endloop
  endfacet
  facet normal  -0.000000e+000  0.000000e+000  1.000000e+000
    outer loop
      vertex  1.750000e+002  5.000000e+001  1.400000e+002
      vertex  1.237783e+002  4.350000e+001  1.400000e+002
      vertex  1.266790e+002  4.287069e+001  1.400000e+002
    endloop
  endfacet
  facet normal  -0.000000e+000  0.000000e+000  1.000000e+000
    outer loop
      vertex  1.750000e+002  5.000000e+001  1.400000e+002
      vertex  1.266790e+002  4.287069e+001  1.400000e+002
      vertex  1.290582e+002  4.109592e+001  1.400000e+002
    endloop
  endfacet
  facet normal  -0.000000e+000  0.000000e+000  1.000000e+000
    outer loop
      vertex  1.750000e+002  5.000000e+001  1.400000e+002
      vertex  1.290582e+002  4.109592e+001  1.400000e+002
      vertex  1.304880e+002  3.849479e+001  1.400000e+002
    endloop
  endfacet
  facet normal  -0.000000e+000  0.000000e+000  9.999999e-001
    outer loop
      vertex  1.750000e+002  5.000000e+001  1.400000e+002
      vertex  1.304880e+002  3.849479e+001  1.400000e+002
      vertex  1.500000e+002  0.000000e+000  1.400000e+002
    endloop
  endfacet
  facet normal  -0.000000e+000  0.000000e+000  1.000000e+000
    outer loop
      vertex  1.750000e+002  5.000000e+001  1.400000e+002
      vertex  1.500000e+002  0.000000e+000  1.400000e+002
      vertex  1.500000e+002 -1.000000e+002  1.400000e+002
    endloop
  endfacet
  facet normal  0.000000e+000  0.000000e+000  1.000000e+000
    outer loop
      vertex  1.750000e+002  5.000000e+001  1.400000e+002
      vertex  1.500000e+002 -1.000000e+002  1.400000e+002
      vertex  1.750000e+002 -1.000000e+002  1.400000e+002
    endloop
  endfacet
  facet normal  0.000000e+000  1.000000e+000  -0.000000e+000
    outer loop
      vertex  1.750000e+002  5.000000e+001  1.400000e+002
      vertex  1.750000e+002  5.000000e+001  2.842171e-014
      vertex -2.500000e+001  5.000000e+001  1.400000e+002
    endloop
  endfacet
  facet normal  0.000000e+000  1.000000e+000  0.000000e+000
    outer loop
      vertex -2.500000e+001  5.000000e+001  1.400000e+002
      vertex  1.750000e+002  5.000000e+001  2.842171e-014
      vertex -2.500000e+001  5.000000e+001  0.000000e+000
    endloop
  endfacet
  facet normal  1.136868e-015  0.000000e+000 -1.000000e+000
    outer loop
      vertex  1.500000e+002  0.000000e+000  0.000000e+000
      vertex  1.750000e+002 -1.000000e+002  2.842171e-014
      vertex  1.500000e+002 -1.000000e+002  0.000000e+000
    endloop
  endfacet
  facet normal  1.136868e-015  0.000000e+000 -1.000000e+000
    outer loop
      vertex  1.750000e+002 -1.000000e+002  2.842171e-014
      vertex  1.500000e+002  0.000000e+000  0.000000e+000
      vertex  1.750000e+002  5.000000e+001  2.842171e-014
    endloop
  endfacet
  facet normal  0.000000e+000  5.684342e-016 -1.000000e+000
    outer loop
      vertex  1.750000e+002  5.000000e+001  2.842171e-014
      vertex  1.500000e+002  0.000000e+000  0.000000e+000
      vertex  0.000000e+000  0.000000e+000  0.000000e+000
    endloop
  endfacet
  facet normal  1.421085e-016  7.105427e-017 -1.000000e+000
    outer loop
      vertex  1.750000e+002  5.000000e+001  2.842171e-014
      vertex  0.000000e+000  0.000000e+000  0.000000e+000
      vertex -2.500000e+001  5.000000e+001  0.000000e+000
    endloop
  endfacet
  facet normal  0.000000e+000  0.000000e+000 -1.000000e+000
    outer loop
      vertex -2.500000e+001  5.000000e+001  0.000000e+000
      vertex  0.000000e+000  0.000000e+000  0.000000e+000
      vertex -5.684342e-014 -1.000000e+002  0.000000e+000
    endloop
  endfacet
  facet normal  0.000000e+000  0.000000e+000 -1.000000e+000
    outer loop
      vertex -2.500000e+001  5.000000e+001  0.000000e+000
      vertex -5.684342e-014 -1.000000e+002  0.000000e+000
      vertex -2.500000e+001 -1.000000e+002  0.000000e+000
    endloop
  endfacet
  facet normal -1.000000e+000  -0.000000e+000  0.000000e+000
    outer loop
      vertex  1.500000e+002 -1.000000e+002  1.400000e+002
      vertex  1.500000e+002  0.000000e+000  1.400000e+002
      vertex  1.500000e+002 -1.000000e+002  0.000000e+000
    endloop
  endfacet
  facet normal -1.000000e+000  0.000000e+000  0.000000e+000
    outer loop
      vertex  1.500000e+002 -1.000000e+002  0.000000e+000
      vertex  1.500000e+002  0.000000e+000  1.400000e+002
      vertex  1.500000e+002  0.000000e+000  0.000000e+000
    endloop
  endfacet
  facet normal  0.000000e+000 -1.000000e+000  0.000000e+000
    outer loop
      vertex  0.000000e+000  0.000000e+000  1.400000e+002
      vertex  0.000000e+000  0.000000e+000  0.000000e+000
      vertex  1.500000e+002  0.000000e+000  1.400000e+002
    endloop
  endfacet
  facet normal  0.000000e+000 -1.000000e+000  -0.000000e+000
    outer loop
      vertex  1.500000e+002  0.000000e+000  1.400000e+002
      vertex  0.000000e+000  0.000000e+000  0.000000e+000
      vertex  1.500000e+002  0.000000e+000  0.000000e+000
    endloop
  endfacet
  facet normal  0.000000e+000 -1.000000e+000  -0.000000e+000
    outer loop
      vertex  1.750000e+002 -1.000000e+002  2.842171e-014
      vertex  1.750000e+002 -1.000000e+002  1.400000e+002
      vertex  1.500000e+002 -1.000000e+002  0.000000e+000
    endloop
  endfacet
  facet normal  0.000000e+000 -1.000000e+000  0.000000e+000
    outer loop
      vertex  1.500000e+002 -1.000000e+002  0.000000e+000
      vertex  1.750000e+002 -1.000000e+002  1.400000e+002
      vertex  1.500000e+002 -1.000000e+002  1.400000e+002
    endloop
  endfacet
  facet normal  1.000000e+000 -5.684342e-016  0.000000e+000
    outer loop
      vertex  0.000000e+000  0.000000e+000  1.400000e+002
      vertex -5.684342e-014 -1.000000e+002  1.400000e+002
      vertex  0.000000e+000  0.000000e+000  0.000000e+000
    endloop
  endfacet
  facet normal  1.000000e+000 -5.684342e-016  0.000000e+000
    outer loop
      vertex  0.000000e+000  0.000000e+000  0.000000e+000
      vertex -5.684342e-014 -1.000000e+002  1.400000e+002
      vertex -5.684342e-014 -1.000000e+002  0.000000e+000
    endloop
  endfacet
  facet normal  0.000000e+000 -1.000000e+000  -0.000000e+000
    outer loop
      vertex -5.684342e-014 -1.000000e+002  0.000000e+000
      vertex -5.684342e-014 -1.000000e+002  1.400000e+002
      vertex -2.500000e+001 -1.000000e+002  0.000000e+000
    endloop
  endfacet
  facet normal  0.000000e+000 -1.000000e+000  0.000000e+000
    outer loop
      vertex -2.500000e+001 -1.000000e+002  0.000000e+000
      vertex -5.684342e-014 -1.000000e+002  1.400000e+002
      vertex -2.500000e+001 -1.000000e+002  1.400000e+002
    endloop
  endfacet
  facet normal  0.000000e+000 -1.000000e+000  0.000000e+000
    outer loop
      vertex  2.622172e+001  4.350000e+001  9.000000e+001
      vertex  1.237783e+002  4.350000e+001  9.000000e+001
      vertex  2.622172e+001  4.350000e+001  1.400000e+002
    endloop
  endfacet
  facet normal  0.000000e+000 -1.000000e+000  0.000000e+000
    outer loop
      vertex  2.622172e+001  4.350000e+001  1.400000e+002
      vertex  1.237783e+002  4.350000e+001  9.000000e+001
      vertex  1.237783e+002  4.350000e+001  1.400000e+002
    endloop
  endfacet
  facet normal -2.120154e-001 -9.772663e-001  -0.000000e+000
    outer loop
      vertex  1.266790e+002  4.287069e+001  9.000000e+001
      vertex  1.237783e+002  4.350000e+001  1.400000e+002
      vertex  1.237783e+002  4.350000e+001  9.000000e+001
    endloop
  endfacet
  facet normal -2.120154e-001 -9.772663e-001  0.000000e+000
    outer loop
      vertex  1.237783e+002  4.350000e+001  1.400000e+002
      vertex  1.266790e+002  4.287069e+001  9.000000e+001
      vertex  1.266790e+002  4.287069e+001  1.400000e+002
    endloop
  endfacet
  facet normal -5.979252e-001 -8.015518e-001  -0.000000e+000
    outer loop
      vertex  1.266790e+002  4.287069e+001  1.400000e+002
      vertex  1.266790e+002  4.287069e+001  9.000000e+001
      vertex  1.290582e+002  4.109592e+001  9.000000e+001
    endloop
  endfacet
  facet normal -5.979252e-001 -8.015518e-001  0.000000e+000
    outer loop
      vertex  1.266790e+002  4.287069e+001  1.400000e+002
      vertex  1.290582e+002  4.109592e+001  9.000000e+001
      vertex  1.290582e+002  4.109592e+001  1.400000e+002
    endloop
  endfacet
  facet normal -8.763269e-001 -4.817170e-001  -0.000000e+000
    outer loop
      vertex  1.290582e+002  4.109592e+001  1.400000e+002
      vertex  1.290582e+002  4.109592e+001  9.000000e+001
      vertex  1.304880e+002  3.849479e+001  9.000000e+001
    endloop
  endfacet
  facet normal -8.763269e-001 -4.817170e-001  0.000000e+000
    outer loop
      vertex  1.290582e+002  4.109592e+001  1.400000e+002
      vertex  1.304880e+002  3.849479e+001  9.000000e+001
      vertex  1.304880e+002  3.849479e+001  1.400000e+002
    endloop
  endfacet
  facet normal -9.585364e-001 -2.849699e-001  0.000000e+000
    outer loop
      vertex  1.304880e+002  3.849479e+001  1.400000e+002
      vertex  1.304880e+002  3.849479e+001  9.000000e+001
      vertex  1.369438e+002  1.677976e+001  1.400000e+002
    endloop
  endfacet
  facet normal -9.585364e-001 -2.849699e-001  -0.000000e+000
    outer loop
      vertex  1.369438e+002  1.677976e+001  1.400000e+002
      vertex  1.304880e+002  3.849479e+001  9.000000e+001
      vertex  1.369438e+002  1.677976e+001  9.000000e+001
    endloop
  endfacet
  facet normal -9.640491e-001  2.657243e-001  0.000000e+000
    outer loop
      vertex  1.364619e+002  1.098478e+001  9.000000e+001
      vertex  1.372480e+002  1.383693e+001  1.400000e+002
      vertex  1.372480e+002  1.383693e+001  9.000000e+001
    endloop
  endfacet
  facet normal -9.947004e-001 -1.028166e-001  0.000000e+000
    outer loop
      vertex  1.372480e+002  1.383693e+001  9.000000e+001
      vertex  1.372480e+002  1.383693e+001  1.400000e+002
      vertex  1.369438e+002  1.677976e+001  1.400000e+002
    endloop
  endfacet
  facet normal -9.947004e-001 -1.028166e-001  -0.000000e+000
    outer loop
      vertex  1.372480e+002  1.383693e+001  9.000000e+001
      vertex  1.369438e+002  1.677976e+001  1.400000e+002
      vertex  1.369438e+002  1.677976e+001  9.000000e+001
    endloop
  endfacet
  facet normal -9.640491e-001  2.657243e-001  0.000000e+000
    outer loop
      vertex  1.372480e+002  1.383693e+001  1.400000e+002
      vertex  1.364619e+002  1.098478e+001  9.000000e+001
      vertex  1.364619e+002  1.098478e+001  1.400000e+002
    endloop
  endfacet
  facet normal -8.015521e-001  5.979249e-001  0.000000e+000
    outer loop
      vertex  1.364619e+002  1.098478e+001  1.400000e+002
      vertex  1.364619e+002  1.098478e+001  9.000000e+001
      vertex  1.346929e+002  8.613381e+000  9.000000e+001
    endloop
  endfacet
  facet normal -8.015521e-001  5.979249e-001  0.000000e+000
    outer loop
      vertex  1.364619e+002  1.098478e+001  1.400000e+002
      vertex  1.346929e+002  8.613381e+000  9.000000e+001
      vertex  1.346929e+002  8.613381e+000  1.400000e+002
    endloop
  endfacet
  facet normal -5.294329e-001  8.483518e-001  0.000000e+000
    outer loop
      vertex  1.346929e+002  8.613381e+000  1.400000e+002
      vertex  1.346929e+002  8.613381e+000  9.000000e+001
      vertex  1.321831e+002  7.047049e+000  9.000000e+001
    endloop
  endfacet
  facet normal -5.294329e-001  8.483518e-001  0.000000e+000
    outer loop
      vertex  1.346929e+002  8.613381e+000  1.400000e+002
      vertex  1.321831e+002  7.047049e+000  9.000000e+001
      vertex  1.321831e+002  7.047049e+000  1.400000e+002
    endloop
  endfacet
  facet normal -1.849065e-001  9.827561e-001  0.000000e+000
    outer loop
      vertex  1.321831e+002  7.047049e+000  1.400000e+002
      vertex  1.321831e+002  7.047049e+000  9.000000e+001
      vertex  1.292756e+002  6.500000e+000  9.000000e+001
    endloop
  endfacet
  facet normal -1.849065e-001  9.827561e-001  0.000000e+000
    outer loop
      vertex  1.321831e+002  7.047049e+000  1.400000e+002
      vertex  1.292756e+002  6.500000e+000  9.000000e+001
      vertex  1.292756e+002  6.500000e+000  1.400000e+002
    endloop
  endfacet
  facet normal  0.000000e+000  1.000000e+000  0.000000e+000
    outer loop
      vertex  1.292756e+002  6.500000e+000  9.000000e+001
      vertex  2.072444e+001  6.500000e+000  9.000000e+001
      vertex  1.292756e+002  6.500000e+000  1.400000e+002
    endloop
  endfacet
  facet normal  0.000000e+000  1.000000e+000  0.000000e+000
    outer loop
      vertex  1.292756e+002  6.500000e+000  1.400000e+002
      vertex  2.072444e+001  6.500000e+000  9.000000e+001
      vertex  2.072444e+001  6.500000e+000  1.400000e+002
    endloop
  endfacet
  facet normal  5.294326e-001  8.483520e-001  0.000000e+000
    outer loop
      vertex  1.530708e+001  8.613381e+000  9.000000e+001
      vertex  1.781694e+001  7.047049e+000  1.400000e+002
      vertex  1.781694e+001  7.047049e+000  9.000000e+001
    endloop
  endfacet
  facet normal  1.849069e-001  9.827561e-001  -0.000000e+000
    outer loop
      vertex  1.781694e+001  7.047049e+000  9.000000e+001
      vertex  1.781694e+001  7.047049e+000  1.400000e+002
      vertex  2.072444e+001  6.500000e+000  1.400000e+002
    endloop
  endfacet
  facet normal  1.849069e-001  9.827561e-001  0.000000e+000
    outer loop
      vertex  1.781694e+001  7.047049e+000  9.000000e+001
      vertex  2.072444e+001  6.500000e+000  1.400000e+002
      vertex  2.072444e+001  6.500000e+000  9.000000e+001
    endloop
  endfacet
  facet normal  5.294326e-001  8.483520e-001  -0.000000e+000
    outer loop
      vertex  1.781694e+001  7.047049e+000  1.400000e+002
      vertex  1.530708e+001  8.613381e+000  9.000000e+001
      vertex  1.530708e+001  8.613381e+000  1.400000e+002
    endloop
  endfacet
  facet normal  8.015516e-001  5.979255e-001  0.000000e+000
    outer loop
      vertex  1.530708e+001  8.613381e+000  1.400000e+002
      vertex  1.530708e+001  8.613381e+000  9.000000e+001
      vertex  1.353811e+001  1.098478e+001  9.000000e+001
    endloop
  endfacet
  facet normal  8.015516e-001  5.979255e-001  -0.000000e+000
    outer loop
      vertex  1.530708e+001  8.613381e+000  1.400000e+002
      vertex  1.353811e+001  1.098478e+001  9.000000e+001
      vertex  1.353811e+001  1.098478e+001  1.400000e+002
    endloop
  endfacet
  facet normal  9.640488e-001  2.657252e-001  0.000000e+000
    outer loop
      vertex  1.353811e+001  1.098478e+001  1.400000e+002
      vertex  1.353811e+001  1.098478e+001  9.000000e+001
      vertex  1.275196e+001  1.383693e+001  9.000000e+001
    endloop
  endfacet
  facet normal  9.640488e-001  2.657252e-001  -0.000000e+000
    outer loop
      vertex  1.353811e+001  1.098478e+001  1.400000e+002
      vertex  1.275196e+001  1.383693e+001  9.000000e+001
      vertex  1.275196e+001  1.383693e+001  1.400000e+002
    endloop
  endfacet
  facet normal  9.947004e-001 -1.028162e-001  0.000000e+000
    outer loop
      vertex  1.275196e+001  1.383693e+001  1.400000e+002
      vertex  1.275196e+001  1.383693e+001  9.000000e+001
      vertex  1.305615e+001  1.677976e+001  9.000000e+001
    endloop
  endfacet
  facet normal  9.947004e-001 -1.028162e-001  0.000000e+000
    outer loop
      vertex  1.275196e+001  1.383693e+001  1.400000e+002
      vertex  1.305615e+001  1.677976e+001  9.000000e+001
      vertex  1.305615e+001  1.677976e+001  1.400000e+002
    endloop
  endfacet
  facet normal  9.585364e-001 -2.849702e-001  0.000000e+000
    outer loop
      vertex  1.305615e+001  1.677976e+001  1.400000e+002
      vertex  1.305615e+001  1.677976e+001  9.000000e+001
      vertex  1.951196e+001  3.849479e+001  1.400000e+002
    endloop
  endfacet
  facet normal  9.585364e-001 -2.849702e-001  0.000000e+000
    outer loop
      vertex  1.951196e+001  3.849479e+001  1.400000e+002
      vertex  1.305615e+001  1.677976e+001  9.000000e+001
      vertex  1.951196e+001  3.849479e+001  9.000000e+001
    endloop
  endfacet
  facet normal  8.763271e-001 -4.817165e-001  0.000000e+000
    outer loop
      vertex  2.094180e+001  4.109592e+001  9.000000e+001
      vertex  1.951196e+001  3.849479e+001  1.400000e+002
      vertex  1.951196e+001  3.849479e+001  9.000000e+001
    endloop
  endfacet
  facet normal  8.763271e-001 -4.817165e-001  0.000000e+000
    outer loop
      vertex  1.951196e+001  3.849479e+001  1.400000e+002
      vertex  2.094180e+001  4.109592e+001  9.000000e+001
      vertex  2.094180e+001  4.109592e+001  1.400000e+002
    endloop
  endfacet
  facet normal  5.979255e-001 -8.015516e-001  0.000000e+000
    outer loop
      vertex  2.094180e+001  4.109592e+001  1.400000e+002
      vertex  2.094180e+001  4.109592e+001  9.000000e+001
      vertex  2.332098e+001  4.287069e+001  9.000000e+001
    endloop
  endfacet
  facet normal  5.979255e-001 -8.015516e-001  0.000000e+000
    outer loop
      vertex  2.094180e+001  4.109592e+001  1.400000e+002
      vertex  2.332098e+001  4.287069e+001  9.000000e+001
      vertex  2.332098e+001  4.287069e+001  1.400000e+002
    endloop
  endfacet
  facet normal  2.120152e-001 -9.772664e-001  0.000000e+000
    outer loop
      vertex  2.332098e+001  4.287069e+001  1.400000e+002
      vertex  2.332098e+001  4.287069e+001  9.000000e+001
      vertex  2.622172e+001  4.350000e+001  9.000000e+001
    endloop
  endfacet
  facet normal  2.120152e-001 -9.772664e-001  0.000000e+000
    outer loop
      vertex  2.332098e+001  4.287069e+001  1.400000e+002
      vertex  2.622172e+001  4.350000e+001  9.000000e+001
      vertex  2.622172e+001  4.350000e+001  1.400000e+002
    endloop
  endfacet
  facet normal  -0.000000e+000  0.000000e+000  1.000000e+000
    outer loop
      vertex  1.237783e+002  4.350000e+001  9.000000e+001
      vertex  2.622172e+001  4.350000e+001  9.000000e+001
      vertex  1.266790e+002  4.287069e+001  9.000000e+001
    endloop
  endfacet
  facet normal  0.000000e+000  0.000000e+000  1.000000e+000
    outer loop
      vertex  1.266790e+002  4.287069e+001  9.000000e+001
      vertex  2.622172e+001  4.350000e+001  9.000000e+001
      vertex  2.332098e+001  4.287069e+001  9.000000e+001
    endloop
  endfacet
  facet normal  -0.000000e+000  0.000000e+000  1.000000e+000
    outer loop
      vertex  1.266790e+002  4.287069e+001  9.000000e+001
      vertex  2.332098e+001  4.287069e+001  9.000000e+001
      vertex  1.290582e+002  4.109592e+001  9.000000e+001
    endloop
  endfacet
  facet normal  0.000000e+000  0.000000e+000  1.000000e+000
    outer loop
      vertex  1.290582e+002  4.109592e+001  9.000000e+001
      vertex  2.332098e+001  4.287069e+001  9.000000e+001
      vertex  2.094180e+001  4.109592e+001  9.000000e+001
    endloop
  endfacet
  facet normal  -0.000000e+000  0.000000e+000  1.000000e+000
    outer loop
      vertex  1.290582e+002  4.109592e+001  9.000000e+001
      vertex  2.094180e+001  4.109592e+001  9.000000e+001
      vertex  1.304880e+002  3.849479e+001  9.000000e+001
    endloop
  endfacet
  facet normal  0.000000e+000  0.000000e+000  1.000000e+000
    outer loop
      vertex  1.304880e+002  3.849479e+001  9.000000e+001
      vertex  2.094180e+001  4.109592e+001  9.000000e+001
      vertex  1.951196e+001  3.849479e+001  9.000000e+001
    endloop
  endfacet
  facet normal  -0.000000e+000  0.000000e+000  1.000000e+000
    outer loop
      vertex  1.304880e+002  3.849479e+001  9.000000e+001
      vertex  1.951196e+001  3.849479e+001  9.000000e+001
      vertex  1.369438e+002  1.677976e+001  9.000000e+001
    endloop
  endfacet
  facet normal  0.000000e+000  0.000000e+000  1.000000e+000
    outer loop
      vertex  1.369438e+002  1.677976e+001  9.000000e+001
      vertex  1.951196e+001  3.849479e+001  9.000000e+001
      vertex  1.305615e+001  1.677976e+001  9.000000e+001
    endloop
  endfacet
  facet normal  -0.000000e+000  0.000000e+000  1.000000e+000
    outer loop
      vertex  1.369438e+002  1.677976e+001  9.000000e+001
      vertex  1.305615e+001  1.677976e+001  9.000000e+001
      vertex  1.372480e+002  1.383693e+001  9.000000e+001
    endloop
  endfacet
  facet normal  0.000000e+000  0.000000e+000  1.000000e+000
    outer loop
      vertex  1.372480e+002  1.383693e+001  9.000000e+001
      vertex  1.305615e+001  1.677976e+001  9.000000e+001
      vertex  1.275196e+001  1.383693e+001  9.000000e+001
    endloop
  endfacet
  facet normal  -0.000000e+000  0.000000e+000  1.000000e+000
    outer loop
      vertex  1.372480e+002  1.383693e+001  9.000000e+001
      vertex  1.275196e+001  1.383693e+001  9.000000e+001
      vertex  1.364619e+002  1.098478e+001  9.000000e+001
    endloop
  endfacet
  facet normal  0.000000e+000  0.000000e+000  1.000000e+000
    outer loop
      vertex  1.364619e+002  1.098478e+001  9.000000e+001
      vertex  1.275196e+001  1.383693e+001  9.000000e+001
      vertex  1.353811e+001  1.098478e+001  9.000000e+001
    endloop
  endfacet
  facet normal  -0.000000e+000  0.000000e+000  1.000000e+000
    outer loop
      vertex  1.364619e+002  1.098478e+001  9.000000e+001
      vertex  1.353811e+001  1.098478e+001  9.000000e+001
      vertex  1.346929e+002  8.613381e+000  9.000000e+001
    endloop
  endfacet
  facet normal  0.000000e+000  0.000000e+000  1.000000e+000
    outer loop
      vertex  1.346929e+002  8.613381e+000  9.000000e+001
      vertex  1.353811e+001  1.098478e+001  9.000000e+001
      vertex  1.530708e+001  8.613381e+000  9.000000e+001
    endloop
  endfacet
  facet normal  -0.000000e+000  0.000000e+000  1.000000e+000
    outer loop
      vertex  1.346929e+002  8.613381e+000  9.000000e+001
      vertex  1.530708e+001  8.613381e+000  9.000000e+001
      vertex  1.321831e+002  7.047049e+000  9.000000e+001
    endloop
  endfacet
  facet normal  0.000000e+000  0.000000e+000  1.000000e+000
    outer loop
      vertex  1.321831e+002  7.047049e+000  9.000000e+001
      vertex  1.530708e+001  8.613381e+000  9.000000e+001
      vertex  1.781694e+001  7.047049e+000  9.000000e+001
    endloop
  endfacet
  facet normal  -0.000000e+000  0.000000e+000  9.999999e-001
    outer loop
      vertex  1.321831e+002  7.047049e+000  9.000000e+001
      vertex  1.781694e+001  7.047049e+000  9.000000e+001
      vertex  1.292756e+002  6.500000e+000  9.000000e+001
    endloop
  endfacet
  facet normal  0.000000e+000  0.000000e+000  9.999999e-001
    outer loop
      vertex  1.292756e+002  6.500000e+000  9.000000e+001
      vertex  1.781694e+001  7.047049e+000  9.000000e+001
      vertex  2.072444e+001  6.500000e+000  9.000000e+001
    endloop
  endfacet
endsolid CATIA STL
