solid CATIA STL
  facet normal  0.000000e+000  -0.000000e+000 -1.000000e+000
    outer loop
      vertex  1.025000e+002  1.323057e+002  1.200000e+002
      vertex  2.150000e+002  1.326795e+002  1.200000e+002
      vertex  2.198236e+002  1.306815e+002  1.200000e+002
    endloop
  endfacet
  facet normal  -0.000000e+000  0.000000e+000 -1.000000e+000
    outer loop
      vertex  5.000000e+000  2.950000e+002  1.200000e+002
      vertex  2.950000e+002  2.950000e+002  1.200000e+002
      vertex  2.250000e+002  1.700000e+002  1.200000e+002
    endloop
  endfacet
  facet normal  0.000000e+000  0.000000e+000 -1.000000e+000
    outer loop
      vertex  5.000000e+000  2.950000e+002  1.200000e+002
      vertex  2.250000e+002  1.700000e+002  1.200000e+002
      vertex  8.000000e+001  2.223057e+002  1.200000e+002
    endloop
  endfacet
  facet normal  0.000000e+000  0.000000e+000 -9.999999e-001
    outer loop
      vertex  5.000000e+000  2.950000e+002  1.200000e+002
      vertex  8.000000e+001  2.223057e+002  1.200000e+002
      vertex  7.000000e+001  2.223057e+002  1.200000e+002
    endloop
  endfacet
  facet normal  -0.000000e+000  -0.000000e+000 -1.000000e+000
    outer loop
      vertex  5.000000e+000  2.950000e+002  1.200000e+002
      vertex  7.000000e+001  2.223057e+002  1.200000e+002
      vertex  7.000000e+001  2.123057e+002  1.200000e+002
    endloop
  endfacet
  facet normal  -0.000000e+000  0.000000e+000 -9.999999e-001
    outer loop
      vertex  5.000000e+000  2.950000e+002  1.200000e+002
      vertex  7.000000e+001  2.123057e+002  1.200000e+002
      vertex  5.250000e+001  1.823057e+002  1.200000e+002
    endloop
  endfacet
  facet normal  0.000000e+000  0.000000e+000 -1.000000e+000
    outer loop
      vertex  5.000000e+000  2.950000e+002  1.200000e+002
      vertex  5.250000e+001  1.823057e+002  1.200000e+002
      vertex  4.750000e+001  1.823057e+002  1.200000e+002
    endloop
  endfacet
  facet normal  -0.000000e+000  -0.000000e+000 -1.000000e+000
    outer loop
      vertex  5.000000e+000  2.950000e+002  1.200000e+002
      vertex  4.750000e+001  1.823057e+002  1.200000e+002
      vertex  4.750000e+001  1.323057e+002  1.200000e+002
    endloop
  endfacet
  facet normal  -0.000000e+000  0.000000e+000 -1.000000e+000
    outer loop
      vertex  5.000000e+000  2.950000e+002  1.200000e+002
      vertex  4.750000e+001  1.323057e+002  1.200000e+002
      vertex  5.000000e+000  5.000000e+000  1.200000e+002
    endloop
  endfacet
  facet normal  0.000000e+000  0.000000e+000 -1.000000e+000
    outer loop
      vertex  5.250000e+001  1.323057e+002  1.200000e+002
      vertex  5.250000e+001  1.823057e+002  1.200000e+002
      vertex  7.000000e+001  2.123057e+002  1.200000e+002
    endloop
  endfacet
  facet normal  0.000000e+000  -0.000000e+000 -1.000000e+000
    outer loop
      vertex  5.250000e+001  1.323057e+002  1.200000e+002
      vertex  7.000000e+001  2.123057e+002  1.200000e+002
      vertex  8.000000e+001  2.123057e+002  1.200000e+002
    endloop
  endfacet
  facet normal  0.000000e+000  -0.000000e+000 -1.000000e+000
    outer loop
      vertex  5.250000e+001  1.323057e+002  1.200000e+002
      vertex  8.000000e+001  2.123057e+002  1.200000e+002
      vertex  9.750000e+001  1.823057e+002  1.200000e+002
    endloop
  endfacet
  facet normal  0.000000e+000  -0.000000e+000 -1.000000e+000
    outer loop
      vertex  5.250000e+001  1.323057e+002  1.200000e+002
      vertex  9.750000e+001  1.823057e+002  1.200000e+002
      vertex  9.750000e+001  1.323057e+002  1.200000e+002
    endloop
  endfacet
  facet normal  0.000000e+000  0.000000e+000 -1.000000e+000
    outer loop
      vertex  8.000000e+001  2.223057e+002  1.200000e+002
      vertex  2.250000e+002  1.700000e+002  1.200000e+002
      vertex  1.025000e+002  1.823057e+002  1.200000e+002
    endloop
  endfacet
  facet normal  0.000000e+000  0.000000e+000 -1.000000e+000
    outer loop
      vertex  8.000000e+001  2.223057e+002  1.200000e+002
      vertex  1.025000e+002  1.823057e+002  1.200000e+002
      vertex  9.750000e+001  1.823057e+002  1.200000e+002
    endloop
  endfacet
  facet normal  0.000000e+000  0.000000e+000 -1.000000e+000
    outer loop
      vertex  8.000000e+001  2.223057e+002  1.200000e+002
      vertex  9.750000e+001  1.823057e+002  1.200000e+002
      vertex  8.000000e+001  2.123057e+002  1.200000e+002
    endloop
  endfacet
  facet normal  0.000000e+000  -0.000000e+000 -1.000000e+000
    outer loop
      vertex  5.000000e+000  5.000000e+000  1.200000e+002
      vertex  4.750000e+001  1.323057e+002  1.200000e+002
      vertex  5.250000e+001  1.323057e+002  1.200000e+002
    endloop
  endfacet
  facet normal  0.000000e+000  -0.000000e+000 -9.999999e-001
    outer loop
      vertex  5.000000e+000  5.000000e+000  1.200000e+002
      vertex  5.250000e+001  1.323057e+002  1.200000e+002
      vertex  9.750000e+001  1.323057e+002  1.200000e+002
    endloop
  endfacet
  facet normal  0.000000e+000  -0.000000e+000 -1.000000e+000
    outer loop
      vertex  5.000000e+000  5.000000e+000  1.200000e+002
      vertex  9.750000e+001  1.323057e+002  1.200000e+002
      vertex  1.025000e+002  1.323057e+002  1.200000e+002
    endloop
  endfacet
  facet normal  0.000000e+000  -0.000000e+000 -1.000000e+000
    outer loop
      vertex  5.000000e+000  5.000000e+000  1.200000e+002
      vertex  1.025000e+002  1.323057e+002  1.200000e+002
      vertex  2.198236e+002  1.306815e+002  1.200000e+002
    endloop
  endfacet
  facet normal  0.000000e+000  -0.000000e+000 -1.000000e+000
    outer loop
      vertex  5.000000e+000  5.000000e+000  1.200000e+002
      vertex  2.198236e+002  1.306815e+002  1.200000e+002
      vertex  2.250000e+002  1.300000e+002  1.200000e+002
    endloop
  endfacet
  facet normal  0.000000e+000  -0.000000e+000 -1.000000e+000
    outer loop
      vertex  5.000000e+000  5.000000e+000  1.200000e+002
      vertex  2.250000e+002  1.300000e+002  1.200000e+002
      vertex  2.950000e+002  5.000000e+000  1.200000e+002
    endloop
  endfacet
  facet normal  -0.000000e+000  0.000000e+000 -1.000000e+000
    outer loop
      vertex  1.025000e+002  1.823057e+002  1.200000e+002
      vertex  2.250000e+002  1.700000e+002  1.200000e+002
      vertex  2.198236e+002  1.693185e+002  1.200000e+002
    endloop
  endfacet
  facet normal  -0.000000e+000  0.000000e+000 -1.000000e+000
    outer loop
      vertex  1.025000e+002  1.823057e+002  1.200000e+002
      vertex  2.198236e+002  1.693185e+002  1.200000e+002
      vertex  2.150000e+002  1.673205e+002  1.200000e+002
    endloop
  endfacet
  facet normal  -0.000000e+000  0.000000e+000 -1.000000e+000
    outer loop
      vertex  1.025000e+002  1.823057e+002  1.200000e+002
      vertex  2.150000e+002  1.673205e+002  1.200000e+002
      vertex  2.108579e+002  1.641421e+002  1.200000e+002
    endloop
  endfacet
  facet normal  -0.000000e+000  0.000000e+000 -1.000000e+000
    outer loop
      vertex  1.025000e+002  1.823057e+002  1.200000e+002
      vertex  2.108579e+002  1.641421e+002  1.200000e+002
      vertex  2.076795e+002  1.600000e+002  1.200000e+002
    endloop
  endfacet
  facet normal  -0.000000e+000  0.000000e+000 -1.000000e+000
    outer loop
      vertex  1.025000e+002  1.823057e+002  1.200000e+002
      vertex  2.076795e+002  1.600000e+002  1.200000e+002
      vertex  2.056815e+002  1.551764e+002  1.200000e+002
    endloop
  endfacet
  facet normal  -0.000000e+000  0.000000e+000 -1.000000e+000
    outer loop
      vertex  1.025000e+002  1.823057e+002  1.200000e+002
      vertex  2.056815e+002  1.551764e+002  1.200000e+002
      vertex  2.050000e+002  1.500000e+002  1.200000e+002
    endloop
  endfacet
  facet normal  -0.000000e+000  -0.000000e+000 -1.000000e+000
    outer loop
      vertex  1.025000e+002  1.823057e+002  1.200000e+002
      vertex  2.050000e+002  1.500000e+002  1.200000e+002
      vertex  2.056815e+002  1.448236e+002  1.200000e+002
    endloop
  endfacet
  facet normal  -0.000000e+000  -0.000000e+000 -1.000000e+000
    outer loop
      vertex  1.025000e+002  1.823057e+002  1.200000e+002
      vertex  2.056815e+002  1.448236e+002  1.200000e+002
      vertex  2.076795e+002  1.400000e+002  1.200000e+002
    endloop
  endfacet
  facet normal  -0.000000e+000  -0.000000e+000 -1.000000e+000
    outer loop
      vertex  1.025000e+002  1.823057e+002  1.200000e+002
      vertex  2.076795e+002  1.400000e+002  1.200000e+002
      vertex  2.108579e+002  1.358579e+002  1.200000e+002
    endloop
  endfacet
  facet normal  -0.000000e+000  -0.000000e+000 -1.000000e+000
    outer loop
      vertex  1.025000e+002  1.823057e+002  1.200000e+002
      vertex  2.108579e+002  1.358579e+002  1.200000e+002
      vertex  2.150000e+002  1.326795e+002  1.200000e+002
    endloop
  endfacet
  facet normal  -0.000000e+000  0.000000e+000 -1.000000e+000
    outer loop
      vertex  1.025000e+002  1.823057e+002  1.200000e+002
      vertex  2.150000e+002  1.326795e+002  1.200000e+002
      vertex  1.025000e+002  1.323057e+002  1.200000e+002
    endloop
  endfacet
  facet normal  0.000000e+000  0.000000e+000 -1.000000e+000
    outer loop
      vertex  3.000000e+002  2.950000e+002  1.200000e+002
      vertex  2.443185e+002  1.448236e+002  1.200000e+002
      vertex  2.450000e+002  1.500000e+002  1.200000e+002
    endloop
  endfacet
  facet normal  0.000000e+000  0.000000e+000 -1.000000e+000
    outer loop
      vertex  3.000000e+002  2.950000e+002  1.200000e+002
      vertex  2.450000e+002  1.500000e+002  1.200000e+002
      vertex  2.443185e+002  1.551764e+002  1.200000e+002
    endloop
  endfacet
  facet normal  0.000000e+000  0.000000e+000 -1.000000e+000
    outer loop
      vertex  3.000000e+002  2.950000e+002  1.200000e+002
      vertex  2.443185e+002  1.551764e+002  1.200000e+002
      vertex  2.423205e+002  1.600000e+002  1.200000e+002
    endloop
  endfacet
  facet normal  0.000000e+000  0.000000e+000 -1.000000e+000
    outer loop
      vertex  3.000000e+002  2.950000e+002  1.200000e+002
      vertex  2.423205e+002  1.600000e+002  1.200000e+002
      vertex  2.391421e+002  1.641421e+002  1.200000e+002
    endloop
  endfacet
  facet normal  0.000000e+000  0.000000e+000 -1.000000e+000
    outer loop
      vertex  3.000000e+002  2.950000e+002  1.200000e+002
      vertex  2.391421e+002  1.641421e+002  1.200000e+002
      vertex  2.350000e+002  1.673205e+002  1.200000e+002
    endloop
  endfacet
  facet normal  0.000000e+000  0.000000e+000 -1.000000e+000
    outer loop
      vertex  3.000000e+002  2.950000e+002  1.200000e+002
      vertex  2.350000e+002  1.673205e+002  1.200000e+002
      vertex  2.301764e+002  1.693185e+002  1.200000e+002
    endloop
  endfacet
  facet normal  0.000000e+000  0.000000e+000 -1.000000e+000
    outer loop
      vertex  3.000000e+002  2.950000e+002  1.200000e+002
      vertex  2.301764e+002  1.693185e+002  1.200000e+002
      vertex  2.250000e+002  1.700000e+002  1.200000e+002
    endloop
  endfacet
  facet normal  0.000000e+000  0.000000e+000 -1.000000e+000
    outer loop
      vertex  3.000000e+002  2.950000e+002  1.200000e+002
      vertex  2.250000e+002  1.700000e+002  1.200000e+002
      vertex  2.950000e+002  2.950000e+002  1.200000e+002
    endloop
  endfacet
  facet normal  0.000000e+000  0.000000e+000 -1.000000e+000
    outer loop
      vertex  3.000000e+002  5.000000e+000  1.200000e+002
      vertex  2.950000e+002  5.000000e+000  1.200000e+002
      vertex  2.250000e+002  1.300000e+002  1.200000e+002
    endloop
  endfacet
  facet normal  0.000000e+000  0.000000e+000 -1.000000e+000
    outer loop
      vertex  3.000000e+002  5.000000e+000  1.200000e+002
      vertex  2.250000e+002  1.300000e+002  1.200000e+002
      vertex  2.301764e+002  1.306815e+002  1.200000e+002
    endloop
  endfacet
  facet normal  0.000000e+000  0.000000e+000 -1.000000e+000
    outer loop
      vertex  3.000000e+002  5.000000e+000  1.200000e+002
      vertex  2.301764e+002  1.306815e+002  1.200000e+002
      vertex  2.350000e+002  1.326795e+002  1.200000e+002
    endloop
  endfacet
  facet normal  0.000000e+000  0.000000e+000 -1.000000e+000
    outer loop
      vertex  3.000000e+002  5.000000e+000  1.200000e+002
      vertex  2.350000e+002  1.326795e+002  1.200000e+002
      vertex  2.391421e+002  1.358579e+002  1.200000e+002
    endloop
  endfacet
  facet normal  0.000000e+000  0.000000e+000 -1.000000e+000
    outer loop
      vertex  3.000000e+002  5.000000e+000  1.200000e+002
      vertex  2.391421e+002  1.358579e+002  1.200000e+002
      vertex  2.423205e+002  1.400000e+002  1.200000e+002
    endloop
  endfacet
  facet normal  0.000000e+000  0.000000e+000 -1.000000e+000
    outer loop
      vertex  3.000000e+002  5.000000e+000  1.200000e+002
      vertex  2.423205e+002  1.400000e+002  1.200000e+002
      vertex  2.443185e+002  1.448236e+002  1.200000e+002
    endloop
  endfacet
  facet normal  0.000000e+000  0.000000e+000 -1.000000e+000
    outer loop
      vertex  3.000000e+002  5.000000e+000  1.200000e+002
      vertex  2.443185e+002  1.448236e+002  1.200000e+002
      vertex  3.000000e+002  2.950000e+002  1.200000e+002
    endloop
  endfacet
  facet normal -1.000000e+000  0.000000e+000  0.000000e+000
    outer loop
      vertex  9.750000e+001  1.323057e+002  8.000000e+001
      vertex  9.750000e+001  1.323057e+002  1.200000e+002
      vertex  9.750000e+001  1.823057e+002  8.000000e+001
    endloop
  endfacet
  facet normal -1.000000e+000  0.000000e+000  0.000000e+000
    outer loop
      vertex  9.750000e+001  1.823057e+002  8.000000e+001
      vertex  9.750000e+001  1.323057e+002  1.200000e+002
      vertex  9.750000e+001  1.823057e+002  1.200000e+002
    endloop
  endfacet
  facet normal  1.000000e+000  0.000000e+000  0.000000e+000
    outer loop
      vertex  5.250000e+001  1.323057e+002  1.200000e+002
      vertex  5.250000e+001  1.323057e+002  8.000000e+001
      vertex  5.250000e+001  1.823057e+002  1.200000e+002
    endloop
  endfacet
  facet normal  1.000000e+000  0.000000e+000  0.000000e+000
    outer loop
      vertex  5.250000e+001  1.823057e+002  1.200000e+002
      vertex  5.250000e+001  1.323057e+002  8.000000e+001
      vertex  5.250000e+001  1.823057e+002  8.000000e+001
    endloop
  endfacet
  facet normal  -0.000000e+000 -1.000000e+000  0.000000e+000
    outer loop
      vertex  4.750000e+001  1.323057e+002  7.500000e+001
      vertex  5.250000e+001  1.323057e+002  1.200000e+002
      vertex  4.750000e+001  1.323057e+002  1.200000e+002
    endloop
  endfacet
  facet normal  0.000000e+000 -1.000000e+000  0.000000e+000
    outer loop
      vertex  5.250000e+001  1.323057e+002  1.200000e+002
      vertex  4.750000e+001  1.323057e+002  7.500000e+001
      vertex  5.250000e+001  1.323057e+002  8.000000e+001
    endloop
  endfacet
  facet normal  0.000000e+000 -1.000000e+000  -0.000000e+000
    outer loop
      vertex  5.250000e+001  1.323057e+002  8.000000e+001
      vertex  4.750000e+001  1.323057e+002  7.500000e+001
      vertex  1.025000e+002  1.323057e+002  7.500000e+001
    endloop
  endfacet
  facet normal  0.000000e+000 -1.000000e+000  0.000000e+000
    outer loop
      vertex  5.250000e+001  1.323057e+002  8.000000e+001
      vertex  1.025000e+002  1.323057e+002  7.500000e+001
      vertex  9.750000e+001  1.323057e+002  8.000000e+001
    endloop
  endfacet
  facet normal  0.000000e+000 -1.000000e+000  0.000000e+000
    outer loop
      vertex  9.750000e+001  1.323057e+002  8.000000e+001
      vertex  1.025000e+002  1.323057e+002  7.500000e+001
      vertex  1.025000e+002  1.323057e+002  1.200000e+002
    endloop
  endfacet
  facet normal  -0.000000e+000 -1.000000e+000  0.000000e+000
    outer loop
      vertex  9.750000e+001  1.323057e+002  8.000000e+001
      vertex  1.025000e+002  1.323057e+002  1.200000e+002
      vertex  9.750000e+001  1.323057e+002  1.200000e+002
    endloop
  endfacet
  facet normal  -0.000000e+000  1.000000e+000  0.000000e+000
    outer loop
      vertex  1.025000e+002  1.823057e+002  7.500000e+001
      vertex  9.750000e+001  1.823057e+002  1.200000e+002
      vertex  1.025000e+002  1.823057e+002  1.200000e+002
    endloop
  endfacet
  facet normal  0.000000e+000  1.000000e+000  0.000000e+000
    outer loop
      vertex  9.750000e+001  1.823057e+002  1.200000e+002
      vertex  1.025000e+002  1.823057e+002  7.500000e+001
      vertex  9.750000e+001  1.823057e+002  8.000000e+001
    endloop
  endfacet
  facet normal  0.000000e+000  1.000000e+000  0.000000e+000
    outer loop
      vertex  9.750000e+001  1.823057e+002  8.000000e+001
      vertex  1.025000e+002  1.823057e+002  7.500000e+001
      vertex  4.750000e+001  1.823057e+002  7.500000e+001
    endloop
  endfacet
  facet normal  0.000000e+000  1.000000e+000  0.000000e+000
    outer loop
      vertex  9.750000e+001  1.823057e+002  8.000000e+001
      vertex  4.750000e+001  1.823057e+002  7.500000e+001
      vertex  5.250000e+001  1.823057e+002  8.000000e+001
    endloop
  endfacet
  facet normal  0.000000e+000  1.000000e+000  0.000000e+000
    outer loop
      vertex  5.250000e+001  1.823057e+002  8.000000e+001
      vertex  4.750000e+001  1.823057e+002  7.500000e+001
      vertex  4.750000e+001  1.823057e+002  1.200000e+002
    endloop
  endfacet
  facet normal  -0.000000e+000  1.000000e+000  0.000000e+000
    outer loop
      vertex  5.250000e+001  1.823057e+002  8.000000e+001
      vertex  4.750000e+001  1.823057e+002  1.200000e+002
      vertex  5.250000e+001  1.823057e+002  1.200000e+002
    endloop
  endfacet
  facet normal  -0.000000e+000  0.000000e+000  1.000000e+000
    outer loop
      vertex  9.750000e+001  1.823057e+002  8.000000e+001
      vertex  5.250000e+001  1.823057e+002  8.000000e+001
      vertex  9.750000e+001  1.323057e+002  8.000000e+001
    endloop
  endfacet
  facet normal  0.000000e+000  0.000000e+000  1.000000e+000
    outer loop
      vertex  9.750000e+001  1.323057e+002  8.000000e+001
      vertex  5.250000e+001  1.823057e+002  8.000000e+001
      vertex  5.250000e+001  1.323057e+002  8.000000e+001
    endloop
  endfacet
  facet normal  1.000000e+000  0.000000e+000  0.000000e+000
    outer loop
      vertex  1.025000e+002  1.823057e+002  7.500000e+001
      vertex  1.025000e+002  1.823057e+002  1.200000e+002
      vertex  1.025000e+002  1.323057e+002  7.500000e+001
    endloop
  endfacet
  facet normal  1.000000e+000  0.000000e+000  0.000000e+000
    outer loop
      vertex  1.025000e+002  1.323057e+002  7.500000e+001
      vertex  1.025000e+002  1.823057e+002  1.200000e+002
      vertex  1.025000e+002  1.323057e+002  1.200000e+002
    endloop
  endfacet
  facet normal -1.000000e+000  0.000000e+000  0.000000e+000
    outer loop
      vertex  4.750000e+001  1.323057e+002  7.500000e+001
      vertex  4.750000e+001  1.323057e+002  1.200000e+002
      vertex  4.750000e+001  1.823057e+002  7.500000e+001
    endloop
  endfacet
  facet normal -1.000000e+000  0.000000e+000  0.000000e+000
    outer loop
      vertex  4.750000e+001  1.823057e+002  7.500000e+001
      vertex  4.750000e+001  1.323057e+002  1.200000e+002
      vertex  4.750000e+001  1.823057e+002  1.200000e+002
    endloop
  endfacet
  facet normal  -0.000000e+000  0.000000e+000 -1.000000e+000
    outer loop
      vertex  4.750000e+001  1.823057e+002  7.500000e+001
      vertex  1.025000e+002  1.823057e+002  7.500000e+001
      vertex  4.750000e+001  1.323057e+002  7.500000e+001
    endloop
  endfacet
  facet normal  0.000000e+000  0.000000e+000 -1.000000e+000
    outer loop
      vertex  4.750000e+001  1.323057e+002  7.500000e+001
      vertex  1.025000e+002  1.823057e+002  7.500000e+001
      vertex  1.025000e+002  1.323057e+002  7.500000e+001
    endloop
  endfacet
  facet normal  0.000000e+000  -0.000000e+000  9.999999e-001
    outer loop
      vertex  8.000000e+001  2.123057e+002  1.250000e+002
      vertex  2.050000e+002  1.500000e+002  1.250000e+002
      vertex  2.056815e+002  1.551764e+002  1.250000e+002
    endloop
  endfacet
  facet normal  0.000000e+000  -0.000000e+000  1.000000e+000
    outer loop
      vertex  8.000000e+001  2.123057e+002  1.250000e+002
      vertex  2.056815e+002  1.551764e+002  1.250000e+002
      vertex  2.076795e+002  1.600000e+002  1.250000e+002
    endloop
  endfacet
  facet normal  0.000000e+000  -0.000000e+000  9.999999e-001
    outer loop
      vertex  8.000000e+001  2.123057e+002  1.250000e+002
      vertex  2.076795e+002  1.600000e+002  1.250000e+002
      vertex  2.108579e+002  1.641421e+002  1.250000e+002
    endloop
  endfacet
  facet normal  0.000000e+000  -0.000000e+000  1.000000e+000
    outer loop
      vertex  8.000000e+001  2.123057e+002  1.250000e+002
      vertex  2.108579e+002  1.641421e+002  1.250000e+002
      vertex  2.150000e+002  1.673205e+002  1.250000e+002
    endloop
  endfacet
  facet normal  0.000000e+000  -0.000000e+000  1.000000e+000
    outer loop
      vertex  8.000000e+001  2.123057e+002  1.250000e+002
      vertex  2.150000e+002  1.673205e+002  1.250000e+002
      vertex  2.198236e+002  1.693185e+002  1.250000e+002
    endloop
  endfacet
  facet normal  0.000000e+000  -0.000000e+000  9.999999e-001
    outer loop
      vertex  8.000000e+001  2.123057e+002  1.250000e+002
      vertex  2.198236e+002  1.693185e+002  1.250000e+002
      vertex  2.250000e+002  1.700000e+002  1.250000e+002
    endloop
  endfacet
  facet normal  0.000000e+000  0.000000e+000  1.000000e+000
    outer loop
      vertex  8.000000e+001  2.123057e+002  1.250000e+002
      vertex  2.250000e+002  1.700000e+002  1.250000e+002
      vertex  8.000000e+001  2.223057e+002  1.250000e+002
    endloop
  endfacet
  facet normal  0.000000e+000  0.000000e+000  1.000000e+000
    outer loop
      vertex  0.000000e+000  3.000000e+002  1.250000e+002
      vertex  0.000000e+000  0.000000e+000  1.250000e+002
      vertex  7.000000e+001  2.223057e+002  1.250000e+002
    endloop
  endfacet
  facet normal  0.000000e+000  -0.000000e+000  1.000000e+000
    outer loop
      vertex  0.000000e+000  3.000000e+002  1.250000e+002
      vertex  7.000000e+001  2.223057e+002  1.250000e+002
      vertex  8.000000e+001  2.223057e+002  1.250000e+002
    endloop
  endfacet
  facet normal  -0.000000e+000  -0.000000e+000  1.000000e+000
    outer loop
      vertex  0.000000e+000  3.000000e+002  1.250000e+002
      vertex  8.000000e+001  2.223057e+002  1.250000e+002
      vertex  2.250000e+002  1.700000e+002  1.250000e+002
    endloop
  endfacet
  facet normal  0.000000e+000  -0.000000e+000  1.000000e+000
    outer loop
      vertex  0.000000e+000  3.000000e+002  1.250000e+002
      vertex  2.250000e+002  1.700000e+002  1.250000e+002
      vertex  3.000000e+002  3.000000e+002  1.250000e+002
    endloop
  endfacet
  facet normal  0.000000e+000  0.000000e+000  1.000000e+000
    outer loop
      vertex  0.000000e+000  0.000000e+000  1.250000e+002
      vertex  3.000000e+002  0.000000e+000  1.250000e+002
      vertex  2.250000e+002  1.300000e+002  1.250000e+002
    endloop
  endfacet
  facet normal  0.000000e+000  0.000000e+000  9.999999e-001
    outer loop
      vertex  0.000000e+000  0.000000e+000  1.250000e+002
      vertex  2.250000e+002  1.300000e+002  1.250000e+002
      vertex  2.198236e+002  1.306815e+002  1.250000e+002
    endloop
  endfacet
  facet normal  0.000000e+000  0.000000e+000  1.000000e+000
    outer loop
      vertex  0.000000e+000  0.000000e+000  1.250000e+002
      vertex  2.198236e+002  1.306815e+002  1.250000e+002
      vertex  2.150000e+002  1.326795e+002  1.250000e+002
    endloop
  endfacet
  facet normal  0.000000e+000  0.000000e+000  1.000000e+000
    outer loop
      vertex  0.000000e+000  0.000000e+000  1.250000e+002
      vertex  2.150000e+002  1.326795e+002  1.250000e+002
      vertex  2.108579e+002  1.358579e+002  1.250000e+002
    endloop
  endfacet
  facet normal  0.000000e+000  0.000000e+000  1.000000e+000
    outer loop
      vertex  0.000000e+000  0.000000e+000  1.250000e+002
      vertex  2.108579e+002  1.358579e+002  1.250000e+002
      vertex  2.076795e+002  1.400000e+002  1.250000e+002
    endloop
  endfacet
  facet normal  0.000000e+000  0.000000e+000  1.000000e+000
    outer loop
      vertex  0.000000e+000  0.000000e+000  1.250000e+002
      vertex  2.076795e+002  1.400000e+002  1.250000e+002
      vertex  2.056815e+002  1.448236e+002  1.250000e+002
    endloop
  endfacet
  facet normal  0.000000e+000  0.000000e+000  1.000000e+000
    outer loop
      vertex  0.000000e+000  0.000000e+000  1.250000e+002
      vertex  2.056815e+002  1.448236e+002  1.250000e+002
      vertex  2.050000e+002  1.500000e+002  1.250000e+002
    endloop
  endfacet
  facet normal  0.000000e+000  0.000000e+000  1.000000e+000
    outer loop
      vertex  0.000000e+000  0.000000e+000  1.250000e+002
      vertex  2.050000e+002  1.500000e+002  1.250000e+002
      vertex  8.000000e+001  2.123057e+002  1.250000e+002
    endloop
  endfacet
  facet normal  0.000000e+000  0.000000e+000  9.999999e-001
    outer loop
      vertex  0.000000e+000  0.000000e+000  1.250000e+002
      vertex  8.000000e+001  2.123057e+002  1.250000e+002
      vertex  7.000000e+001  2.123057e+002  1.250000e+002
    endloop
  endfacet
  facet normal  0.000000e+000  -0.000000e+000  1.000000e+000
    outer loop
      vertex  0.000000e+000  0.000000e+000  1.250000e+002
      vertex  7.000000e+001  2.123057e+002  1.250000e+002
      vertex  7.000000e+001  2.223057e+002  1.250000e+002
    endloop
  endfacet
  facet normal  0.000000e+000  0.000000e+000  1.000000e+000
    outer loop
      vertex  3.000000e+002  0.000000e+000  1.250000e+002
      vertex  2.443185e+002  1.551764e+002  1.250000e+002
      vertex  2.450000e+002  1.500000e+002  1.250000e+002
    endloop
  endfacet
  facet normal  0.000000e+000  0.000000e+000  1.000000e+000
    outer loop
      vertex  3.000000e+002  0.000000e+000  1.250000e+002
      vertex  2.450000e+002  1.500000e+002  1.250000e+002
      vertex  2.443185e+002  1.448236e+002  1.250000e+002
    endloop
  endfacet
  facet normal  0.000000e+000  0.000000e+000  1.000000e+000
    outer loop
      vertex  3.000000e+002  0.000000e+000  1.250000e+002
      vertex  2.443185e+002  1.448236e+002  1.250000e+002
      vertex  2.423205e+002  1.400000e+002  1.250000e+002
    endloop
  endfacet
  facet normal  0.000000e+000  0.000000e+000  1.000000e+000
    outer loop
      vertex  3.000000e+002  0.000000e+000  1.250000e+002
      vertex  2.423205e+002  1.400000e+002  1.250000e+002
      vertex  2.391421e+002  1.358579e+002  1.250000e+002
    endloop
  endfacet
  facet normal  0.000000e+000  0.000000e+000  1.000000e+000
    outer loop
      vertex  3.000000e+002  0.000000e+000  1.250000e+002
      vertex  2.391421e+002  1.358579e+002  1.250000e+002
      vertex  2.350000e+002  1.326795e+002  1.250000e+002
    endloop
  endfacet
  facet normal  0.000000e+000  0.000000e+000  9.999999e-001
    outer loop
      vertex  3.000000e+002  0.000000e+000  1.250000e+002
      vertex  2.350000e+002  1.326795e+002  1.250000e+002
      vertex  2.301764e+002  1.306815e+002  1.250000e+002
    endloop
  endfacet
  facet normal  0.000000e+000  0.000000e+000  9.999999e-001
    outer loop
      vertex  3.000000e+002  0.000000e+000  1.250000e+002
      vertex  2.301764e+002  1.306815e+002  1.250000e+002
      vertex  2.250000e+002  1.300000e+002  1.250000e+002
    endloop
  endfacet
  facet normal  -0.000000e+000  0.000000e+000  9.999999e-001
    outer loop
      vertex  3.000000e+002  3.000000e+002  1.250000e+002
      vertex  2.250000e+002  1.700000e+002  1.250000e+002
      vertex  2.301764e+002  1.693185e+002  1.250000e+002
    endloop
  endfacet
  facet normal  -0.000000e+000  0.000000e+000  1.000000e+000
    outer loop
      vertex  3.000000e+002  3.000000e+002  1.250000e+002
      vertex  2.301764e+002  1.693185e+002  1.250000e+002
      vertex  2.350000e+002  1.673205e+002  1.250000e+002
    endloop
  endfacet
  facet normal  -0.000000e+000  0.000000e+000  1.000000e+000
    outer loop
      vertex  3.000000e+002  3.000000e+002  1.250000e+002
      vertex  2.350000e+002  1.673205e+002  1.250000e+002
      vertex  2.391421e+002  1.641421e+002  1.250000e+002
    endloop
  endfacet
  facet normal  -0.000000e+000  0.000000e+000  1.000000e+000
    outer loop
      vertex  3.000000e+002  3.000000e+002  1.250000e+002
      vertex  2.391421e+002  1.641421e+002  1.250000e+002
      vertex  2.423205e+002  1.600000e+002  1.250000e+002
    endloop
  endfacet
  facet normal  -0.000000e+000  0.000000e+000  1.000000e+000
    outer loop
      vertex  3.000000e+002  3.000000e+002  1.250000e+002
      vertex  2.423205e+002  1.600000e+002  1.250000e+002
      vertex  2.443185e+002  1.551764e+002  1.250000e+002
    endloop
  endfacet
  facet normal  -0.000000e+000  0.000000e+000  1.000000e+000
    outer loop
      vertex  3.000000e+002  3.000000e+002  1.250000e+002
      vertex  2.443185e+002  1.551764e+002  1.250000e+002
      vertex  3.000000e+002  0.000000e+000  1.250000e+002
    endloop
  endfacet
  facet normal  0.000000e+000  1.000000e+000  0.000000e+000
    outer loop
      vertex  7.000000e+001  2.123057e+002  1.250000e+002
      vertex  8.000000e+001  2.123057e+002  1.250000e+002
      vertex  7.000000e+001  2.123057e+002  1.200000e+002
    endloop
  endfacet
  facet normal  0.000000e+000  1.000000e+000  0.000000e+000
    outer loop
      vertex  7.000000e+001  2.123057e+002  1.200000e+002
      vertex  8.000000e+001  2.123057e+002  1.250000e+002
      vertex  8.000000e+001  2.123057e+002  1.200000e+002
    endloop
  endfacet
  facet normal -1.000000e+000  0.000000e+000  0.000000e+000
    outer loop
      vertex  8.000000e+001  2.223057e+002  1.250000e+002
      vertex  8.000000e+001  2.223057e+002  1.200000e+002
      vertex  8.000000e+001  2.123057e+002  1.250000e+002
    endloop
  endfacet
  facet normal -1.000000e+000  0.000000e+000  0.000000e+000
    outer loop
      vertex  8.000000e+001  2.123057e+002  1.250000e+002
      vertex  8.000000e+001  2.223057e+002  1.200000e+002
      vertex  8.000000e+001  2.123057e+002  1.200000e+002
    endloop
  endfacet
  facet normal  0.000000e+000 -1.000000e+000  0.000000e+000
    outer loop
      vertex  8.000000e+001  2.223057e+002  1.250000e+002
      vertex  7.000000e+001  2.223057e+002  1.250000e+002
      vertex  8.000000e+001  2.223057e+002  1.200000e+002
    endloop
  endfacet
  facet normal  0.000000e+000 -1.000000e+000  0.000000e+000
    outer loop
      vertex  8.000000e+001  2.223057e+002  1.200000e+002
      vertex  7.000000e+001  2.223057e+002  1.250000e+002
      vertex  7.000000e+001  2.223057e+002  1.200000e+002
    endloop
  endfacet
  facet normal  1.000000e+000  0.000000e+000  0.000000e+000
    outer loop
      vertex  7.000000e+001  2.123057e+002  1.250000e+002
      vertex  7.000000e+001  2.123057e+002  1.200000e+002
      vertex  7.000000e+001  2.223057e+002  1.250000e+002
    endloop
  endfacet
  facet normal  1.000000e+000  0.000000e+000  0.000000e+000
    outer loop
      vertex  7.000000e+001  2.223057e+002  1.250000e+002
      vertex  7.000000e+001  2.123057e+002  1.200000e+002
      vertex  7.000000e+001  2.223057e+002  1.200000e+002
    endloop
  endfacet
  facet normal  1.000000e+000  -0.000000e+000  0.000000e+000
    outer loop
      vertex  1.500000e+002  2.950000e+002  1.100000e+002
      vertex  1.500000e+002  2.210000e+002  1.100000e+002
      vertex  1.500000e+002  2.950000e+002  0.000000e+000
    endloop
  endfacet
  facet normal  1.000000e+000  0.000000e+000  0.000000e+000
    outer loop
      vertex  1.500000e+002  2.950000e+002  0.000000e+000
      vertex  1.500000e+002  2.210000e+002  1.100000e+002
      vertex  1.500000e+002  2.210000e+002  9.500000e+001
    endloop
  endfacet
  facet normal  9.999999e-001  0.000000e+000  0.000000e+000
    outer loop
      vertex  1.500000e+002  2.950000e+002  0.000000e+000
      vertex  1.500000e+002  2.210000e+002  9.500000e+001
      vertex  1.500000e+002  5.000000e+000  0.000000e+000
    endloop
  endfacet
  facet normal  1.000000e+000  0.000000e+000  0.000000e+000
    outer loop
      vertex  1.500000e+002  5.000000e+000  0.000000e+000
      vertex  1.500000e+002  2.210000e+002  9.500000e+001
      vertex  1.500000e+002  2.060000e+002  9.500000e+001
    endloop
  endfacet
  facet normal  1.000000e+000  0.000000e+000  0.000000e+000
    outer loop
      vertex  1.500000e+002  5.000000e+000  0.000000e+000
      vertex  1.500000e+002  2.060000e+002  9.500000e+001
      vertex  1.500000e+002  5.000000e+000  1.100000e+002
    endloop
  endfacet
  facet normal  1.000000e+000  -0.000000e+000  0.000000e+000
    outer loop
      vertex  1.500000e+002  5.000000e+000  1.100000e+002
      vertex  1.500000e+002  2.060000e+002  9.500000e+001
      vertex  1.500000e+002  2.060000e+002  1.100000e+002
    endloop
  endfacet
  facet normal -1.000000e+000  -0.000000e+000  0.000000e+000
    outer loop
      vertex  1.450000e+002  5.000000e+000  1.100000e+002
      vertex  1.450000e+002  2.060000e+002  1.100000e+002
      vertex  1.450000e+002  5.000000e+000  0.000000e+000
    endloop
  endfacet
  facet normal -1.000000e+000  0.000000e+000  0.000000e+000
    outer loop
      vertex  1.450000e+002  5.000000e+000  0.000000e+000
      vertex  1.450000e+002  2.060000e+002  1.100000e+002
      vertex  1.450000e+002  2.060000e+002  9.500000e+001
    endloop
  endfacet
  facet normal -1.000000e+000  0.000000e+000  -0.000000e+000
    outer loop
      vertex  1.450000e+002  5.000000e+000  0.000000e+000
      vertex  1.450000e+002  2.060000e+002  9.500000e+001
      vertex  1.450000e+002  2.210000e+002  9.500000e+001
    endloop
  endfacet
  facet normal -9.999999e-001  0.000000e+000  0.000000e+000
    outer loop
      vertex  1.450000e+002  2.950000e+002  0.000000e+000
      vertex  1.450000e+002  5.000000e+000  0.000000e+000
      vertex  1.450000e+002  2.950000e+002  1.100000e+002
    endloop
  endfacet
  facet normal -1.000000e+000  0.000000e+000  0.000000e+000
    outer loop
      vertex  1.450000e+002  2.950000e+002  1.100000e+002
      vertex  1.450000e+002  5.000000e+000  0.000000e+000
      vertex  1.450000e+002  2.210000e+002  9.500000e+001
    endloop
  endfacet
  facet normal -1.000000e+000  0.000000e+000  0.000000e+000
    outer loop
      vertex  1.450000e+002  2.950000e+002  1.100000e+002
      vertex  1.450000e+002  2.210000e+002  9.500000e+001
      vertex  1.450000e+002  2.210000e+002  1.100000e+002
    endloop
  endfacet
  facet normal  0.000000e+000  0.000000e+000  1.000000e+000
    outer loop
      vertex  1.450000e+002  2.060000e+002  1.100000e+002
      vertex  1.450000e+002  5.000000e+000  1.100000e+002
      vertex  1.500000e+002  2.060000e+002  1.100000e+002
    endloop
  endfacet
  facet normal  0.000000e+000  0.000000e+000  1.000000e+000
    outer loop
      vertex  1.500000e+002  2.060000e+002  1.100000e+002
      vertex  1.450000e+002  5.000000e+000  1.100000e+002
      vertex  1.500000e+002  5.000000e+000  1.100000e+002
    endloop
  endfacet
  facet normal  0.000000e+000  0.000000e+000  1.000000e+000
    outer loop
      vertex  1.450000e+002  2.950000e+002  1.100000e+002
      vertex  1.450000e+002  2.210000e+002  1.100000e+002
      vertex  1.500000e+002  2.950000e+002  1.100000e+002
    endloop
  endfacet
  facet normal  0.000000e+000  0.000000e+000  1.000000e+000
    outer loop
      vertex  1.500000e+002  2.950000e+002  1.100000e+002
      vertex  1.450000e+002  2.210000e+002  1.100000e+002
      vertex  1.500000e+002  2.210000e+002  1.100000e+002
    endloop
  endfacet
  facet normal  0.000000e+000 -1.000000e+000  0.000000e+000
    outer loop
      vertex  1.450000e+002  2.210000e+002  9.500000e+001
      vertex  1.500000e+002  2.210000e+002  9.500000e+001
      vertex  1.450000e+002  2.210000e+002  1.100000e+002
    endloop
  endfacet
  facet normal  0.000000e+000 -1.000000e+000  0.000000e+000
    outer loop
      vertex  1.450000e+002  2.210000e+002  1.100000e+002
      vertex  1.500000e+002  2.210000e+002  9.500000e+001
      vertex  1.500000e+002  2.210000e+002  1.100000e+002
    endloop
  endfacet
  facet normal  0.000000e+000  0.000000e+000  1.000000e+000
    outer loop
      vertex  1.450000e+002  2.210000e+002  9.500000e+001
      vertex  1.450000e+002  2.060000e+002  9.500000e+001
      vertex  1.500000e+002  2.210000e+002  9.500000e+001
    endloop
  endfacet
  facet normal  0.000000e+000  0.000000e+000  1.000000e+000
    outer loop
      vertex  1.500000e+002  2.210000e+002  9.500000e+001
      vertex  1.450000e+002  2.060000e+002  9.500000e+001
      vertex  1.500000e+002  2.060000e+002  9.500000e+001
    endloop
  endfacet
  facet normal  0.000000e+000  1.000000e+000  0.000000e+000
    outer loop
      vertex  1.450000e+002  2.060000e+002  1.100000e+002
      vertex  1.500000e+002  2.060000e+002  1.100000e+002
      vertex  1.450000e+002  2.060000e+002  9.500000e+001
    endloop
  endfacet
  facet normal  0.000000e+000  1.000000e+000  0.000000e+000
    outer loop
      vertex  1.450000e+002  2.060000e+002  9.500000e+001
      vertex  1.500000e+002  2.060000e+002  1.100000e+002
      vertex  1.500000e+002  2.060000e+002  9.500000e+001
    endloop
  endfacet
  facet normal -1.305272e-001  9.914447e-001  0.000000e+000
    outer loop
      vertex  2.250000e+002  1.300000e+002  1.200000e+002
      vertex  2.301764e+002  1.306815e+002  1.250000e+002
      vertex  2.301764e+002  1.306815e+002  1.200000e+002
    endloop
  endfacet
  facet normal -3.826819e-001  9.238802e-001  0.000000e+000
    outer loop
      vertex  2.301764e+002  1.306815e+002  1.200000e+002
      vertex  2.301764e+002  1.306815e+002  1.250000e+002
      vertex  2.350000e+002  1.326795e+002  1.250000e+002
    endloop
  endfacet
  facet normal -3.826819e-001  9.238802e-001  0.000000e+000
    outer loop
      vertex  2.301764e+002  1.306815e+002  1.200000e+002
      vertex  2.350000e+002  1.326795e+002  1.250000e+002
      vertex  2.350000e+002  1.326795e+002  1.200000e+002
    endloop
  endfacet
  facet normal -6.087618e-001  7.933531e-001  0.000000e+000
    outer loop
      vertex  2.350000e+002  1.326795e+002  1.200000e+002
      vertex  2.350000e+002  1.326795e+002  1.250000e+002
      vertex  2.391421e+002  1.358579e+002  1.250000e+002
    endloop
  endfacet
  facet normal -6.087618e-001  7.933531e-001  0.000000e+000
    outer loop
      vertex  2.350000e+002  1.326795e+002  1.200000e+002
      vertex  2.391421e+002  1.358579e+002  1.250000e+002
      vertex  2.391421e+002  1.358579e+002  1.200000e+002
    endloop
  endfacet
  facet normal -7.933531e-001  6.087618e-001  0.000000e+000
    outer loop
      vertex  2.391421e+002  1.358579e+002  1.200000e+002
      vertex  2.391421e+002  1.358579e+002  1.250000e+002
      vertex  2.423205e+002  1.400000e+002  1.250000e+002
    endloop
  endfacet
  facet normal -7.933531e-001  6.087618e-001  0.000000e+000
    outer loop
      vertex  2.391421e+002  1.358579e+002  1.200000e+002
      vertex  2.423205e+002  1.400000e+002  1.250000e+002
      vertex  2.423205e+002  1.400000e+002  1.200000e+002
    endloop
  endfacet
  facet normal -9.238802e-001  3.826819e-001  0.000000e+000
    outer loop
      vertex  2.423205e+002  1.400000e+002  1.200000e+002
      vertex  2.423205e+002  1.400000e+002  1.250000e+002
      vertex  2.443185e+002  1.448236e+002  1.250000e+002
    endloop
  endfacet
  facet normal -9.238802e-001  3.826819e-001  0.000000e+000
    outer loop
      vertex  2.423205e+002  1.400000e+002  1.200000e+002
      vertex  2.443185e+002  1.448236e+002  1.250000e+002
      vertex  2.443185e+002  1.448236e+002  1.200000e+002
    endloop
  endfacet
  facet normal -9.914447e-001  1.305272e-001  0.000000e+000
    outer loop
      vertex  2.443185e+002  1.448236e+002  1.200000e+002
      vertex  2.443185e+002  1.448236e+002  1.250000e+002
      vertex  2.450000e+002  1.500000e+002  1.250000e+002
    endloop
  endfacet
  facet normal -9.914447e-001  1.305272e-001  0.000000e+000
    outer loop
      vertex  2.443185e+002  1.448236e+002  1.200000e+002
      vertex  2.450000e+002  1.500000e+002  1.250000e+002
      vertex  2.450000e+002  1.500000e+002  1.200000e+002
    endloop
  endfacet
  facet normal -1.305272e-001  9.914447e-001  0.000000e+000
    outer loop
      vertex  2.301764e+002  1.306815e+002  1.250000e+002
      vertex  2.250000e+002  1.300000e+002  1.200000e+002
      vertex  2.250000e+002  1.300000e+002  1.250000e+002
    endloop
  endfacet
  facet normal  1.305272e-001  9.914447e-001  0.000000e+000
    outer loop
      vertex  2.250000e+002  1.300000e+002  1.250000e+002
      vertex  2.250000e+002  1.300000e+002  1.200000e+002
      vertex  2.198236e+002  1.306815e+002  1.200000e+002
    endloop
  endfacet
  facet normal  1.305272e-001  9.914447e-001  -0.000000e+000
    outer loop
      vertex  2.250000e+002  1.300000e+002  1.250000e+002
      vertex  2.198236e+002  1.306815e+002  1.200000e+002
      vertex  2.198236e+002  1.306815e+002  1.250000e+002
    endloop
  endfacet
  facet normal  3.826819e-001  9.238802e-001  0.000000e+000
    outer loop
      vertex  2.198236e+002  1.306815e+002  1.250000e+002
      vertex  2.198236e+002  1.306815e+002  1.200000e+002
      vertex  2.150000e+002  1.326795e+002  1.200000e+002
    endloop
  endfacet
  facet normal  3.826819e-001  9.238802e-001  -0.000000e+000
    outer loop
      vertex  2.198236e+002  1.306815e+002  1.250000e+002
      vertex  2.150000e+002  1.326795e+002  1.200000e+002
      vertex  2.150000e+002  1.326795e+002  1.250000e+002
    endloop
  endfacet
  facet normal  6.087618e-001  7.933531e-001  0.000000e+000
    outer loop
      vertex  2.150000e+002  1.326795e+002  1.250000e+002
      vertex  2.150000e+002  1.326795e+002  1.200000e+002
      vertex  2.108579e+002  1.358579e+002  1.200000e+002
    endloop
  endfacet
  facet normal  6.087618e-001  7.933531e-001  -0.000000e+000
    outer loop
      vertex  2.150000e+002  1.326795e+002  1.250000e+002
      vertex  2.108579e+002  1.358579e+002  1.200000e+002
      vertex  2.108579e+002  1.358579e+002  1.250000e+002
    endloop
  endfacet
  facet normal  7.933531e-001  6.087618e-001  0.000000e+000
    outer loop
      vertex  2.108579e+002  1.358579e+002  1.250000e+002
      vertex  2.108579e+002  1.358579e+002  1.200000e+002
      vertex  2.076795e+002  1.400000e+002  1.200000e+002
    endloop
  endfacet
  facet normal  7.933531e-001  6.087618e-001  -0.000000e+000
    outer loop
      vertex  2.108579e+002  1.358579e+002  1.250000e+002
      vertex  2.076795e+002  1.400000e+002  1.200000e+002
      vertex  2.076795e+002  1.400000e+002  1.250000e+002
    endloop
  endfacet
  facet normal  9.238802e-001  3.826819e-001  0.000000e+000
    outer loop
      vertex  2.076795e+002  1.400000e+002  1.250000e+002
      vertex  2.076795e+002  1.400000e+002  1.200000e+002
      vertex  2.056815e+002  1.448236e+002  1.200000e+002
    endloop
  endfacet
  facet normal  9.238802e-001  3.826819e-001  -0.000000e+000
    outer loop
      vertex  2.076795e+002  1.400000e+002  1.250000e+002
      vertex  2.056815e+002  1.448236e+002  1.200000e+002
      vertex  2.056815e+002  1.448236e+002  1.250000e+002
    endloop
  endfacet
  facet normal  9.914447e-001  1.305272e-001  0.000000e+000
    outer loop
      vertex  2.056815e+002  1.448236e+002  1.250000e+002
      vertex  2.056815e+002  1.448236e+002  1.200000e+002
      vertex  2.050000e+002  1.500000e+002  1.200000e+002
    endloop
  endfacet
  facet normal  9.914447e-001  1.305272e-001  -0.000000e+000
    outer loop
      vertex  2.056815e+002  1.448236e+002  1.250000e+002
      vertex  2.050000e+002  1.500000e+002  1.200000e+002
      vertex  2.050000e+002  1.500000e+002  1.250000e+002
    endloop
  endfacet
  facet normal  1.305272e-001 -9.914447e-001  0.000000e+000
    outer loop
      vertex  2.250000e+002  1.700000e+002  1.200000e+002
      vertex  2.198236e+002  1.693185e+002  1.250000e+002
      vertex  2.198236e+002  1.693185e+002  1.200000e+002
    endloop
  endfacet
  facet normal  3.826819e-001 -9.238802e-001  0.000000e+000
    outer loop
      vertex  2.198236e+002  1.693185e+002  1.200000e+002
      vertex  2.198236e+002  1.693185e+002  1.250000e+002
      vertex  2.150000e+002  1.673205e+002  1.250000e+002
    endloop
  endfacet
  facet normal  3.826819e-001 -9.238802e-001  0.000000e+000
    outer loop
      vertex  2.198236e+002  1.693185e+002  1.200000e+002
      vertex  2.150000e+002  1.673205e+002  1.250000e+002
      vertex  2.150000e+002  1.673205e+002  1.200000e+002
    endloop
  endfacet
  facet normal  6.087618e-001 -7.933531e-001  0.000000e+000
    outer loop
      vertex  2.150000e+002  1.673205e+002  1.200000e+002
      vertex  2.150000e+002  1.673205e+002  1.250000e+002
      vertex  2.108579e+002  1.641421e+002  1.250000e+002
    endloop
  endfacet
  facet normal  6.087618e-001 -7.933531e-001  0.000000e+000
    outer loop
      vertex  2.150000e+002  1.673205e+002  1.200000e+002
      vertex  2.108579e+002  1.641421e+002  1.250000e+002
      vertex  2.108579e+002  1.641421e+002  1.200000e+002
    endloop
  endfacet
  facet normal  7.933531e-001 -6.087618e-001  0.000000e+000
    outer loop
      vertex  2.108579e+002  1.641421e+002  1.200000e+002
      vertex  2.108579e+002  1.641421e+002  1.250000e+002
      vertex  2.076795e+002  1.600000e+002  1.250000e+002
    endloop
  endfacet
  facet normal  7.933531e-001 -6.087618e-001  0.000000e+000
    outer loop
      vertex  2.108579e+002  1.641421e+002  1.200000e+002
      vertex  2.076795e+002  1.600000e+002  1.250000e+002
      vertex  2.076795e+002  1.600000e+002  1.200000e+002
    endloop
  endfacet
  facet normal  9.238802e-001 -3.826819e-001  0.000000e+000
    outer loop
      vertex  2.076795e+002  1.600000e+002  1.200000e+002
      vertex  2.076795e+002  1.600000e+002  1.250000e+002
      vertex  2.056815e+002  1.551764e+002  1.250000e+002
    endloop
  endfacet
  facet normal  9.238802e-001 -3.826819e-001  0.000000e+000
    outer loop
      vertex  2.076795e+002  1.600000e+002  1.200000e+002
      vertex  2.056815e+002  1.551764e+002  1.250000e+002
      vertex  2.056815e+002  1.551764e+002  1.200000e+002
    endloop
  endfacet
  facet normal  9.914447e-001 -1.305272e-001  0.000000e+000
    outer loop
      vertex  2.056815e+002  1.551764e+002  1.200000e+002
      vertex  2.056815e+002  1.551764e+002  1.250000e+002
      vertex  2.050000e+002  1.500000e+002  1.250000e+002
    endloop
  endfacet
  facet normal  9.914447e-001 -1.305272e-001  0.000000e+000
    outer loop
      vertex  2.056815e+002  1.551764e+002  1.200000e+002
      vertex  2.050000e+002  1.500000e+002  1.250000e+002
      vertex  2.050000e+002  1.500000e+002  1.200000e+002
    endloop
  endfacet
  facet normal  1.305272e-001 -9.914447e-001  0.000000e+000
    outer loop
      vertex  2.198236e+002  1.693185e+002  1.250000e+002
      vertex  2.250000e+002  1.700000e+002  1.200000e+002
      vertex  2.250000e+002  1.700000e+002  1.250000e+002
    endloop
  endfacet
  facet normal -1.305272e-001 -9.914447e-001  -0.000000e+000
    outer loop
      vertex  2.250000e+002  1.700000e+002  1.250000e+002
      vertex  2.250000e+002  1.700000e+002  1.200000e+002
      vertex  2.301764e+002  1.693185e+002  1.200000e+002
    endloop
  endfacet
  facet normal -1.305272e-001 -9.914447e-001  0.000000e+000
    outer loop
      vertex  2.250000e+002  1.700000e+002  1.250000e+002
      vertex  2.301764e+002  1.693185e+002  1.200000e+002
      vertex  2.301764e+002  1.693185e+002  1.250000e+002
    endloop
  endfacet
  facet normal -3.826819e-001 -9.238802e-001  -0.000000e+000
    outer loop
      vertex  2.301764e+002  1.693185e+002  1.250000e+002
      vertex  2.301764e+002  1.693185e+002  1.200000e+002
      vertex  2.350000e+002  1.673205e+002  1.200000e+002
    endloop
  endfacet
  facet normal -3.826819e-001 -9.238802e-001  0.000000e+000
    outer loop
      vertex  2.301764e+002  1.693185e+002  1.250000e+002
      vertex  2.350000e+002  1.673205e+002  1.200000e+002
      vertex  2.350000e+002  1.673205e+002  1.250000e+002
    endloop
  endfacet
  facet normal -6.087618e-001 -7.933531e-001  -0.000000e+000
    outer loop
      vertex  2.350000e+002  1.673205e+002  1.250000e+002
      vertex  2.350000e+002  1.673205e+002  1.200000e+002
      vertex  2.391421e+002  1.641421e+002  1.200000e+002
    endloop
  endfacet
  facet normal -6.087618e-001 -7.933531e-001  0.000000e+000
    outer loop
      vertex  2.350000e+002  1.673205e+002  1.250000e+002
      vertex  2.391421e+002  1.641421e+002  1.200000e+002
      vertex  2.391421e+002  1.641421e+002  1.250000e+002
    endloop
  endfacet
  facet normal -7.933531e-001 -6.087618e-001  -0.000000e+000
    outer loop
      vertex  2.391421e+002  1.641421e+002  1.250000e+002
      vertex  2.391421e+002  1.641421e+002  1.200000e+002
      vertex  2.423205e+002  1.600000e+002  1.200000e+002
    endloop
  endfacet
  facet normal -7.933531e-001 -6.087618e-001  0.000000e+000
    outer loop
      vertex  2.391421e+002  1.641421e+002  1.250000e+002
      vertex  2.423205e+002  1.600000e+002  1.200000e+002
      vertex  2.423205e+002  1.600000e+002  1.250000e+002
    endloop
  endfacet
  facet normal -9.238802e-001 -3.826819e-001  -0.000000e+000
    outer loop
      vertex  2.423205e+002  1.600000e+002  1.250000e+002
      vertex  2.423205e+002  1.600000e+002  1.200000e+002
      vertex  2.443185e+002  1.551764e+002  1.200000e+002
    endloop
  endfacet
  facet normal -9.238802e-001 -3.826819e-001  0.000000e+000
    outer loop
      vertex  2.423205e+002  1.600000e+002  1.250000e+002
      vertex  2.443185e+002  1.551764e+002  1.200000e+002
      vertex  2.443185e+002  1.551764e+002  1.250000e+002
    endloop
  endfacet
  facet normal -9.914447e-001 -1.305272e-001  -0.000000e+000
    outer loop
      vertex  2.443185e+002  1.551764e+002  1.250000e+002
      vertex  2.443185e+002  1.551764e+002  1.200000e+002
      vertex  2.450000e+002  1.500000e+002  1.200000e+002
    endloop
  endfacet
  facet normal -9.914447e-001 -1.305272e-001  0.000000e+000
    outer loop
      vertex  2.443185e+002  1.551764e+002  1.250000e+002
      vertex  2.450000e+002  1.500000e+002  1.200000e+002
      vertex  2.450000e+002  1.500000e+002  1.250000e+002
    endloop
  endfacet
  facet normal  1.000000e+000  0.000000e+000  0.000000e+000
    outer loop
      vertex  5.000000e+000  5.000000e+000  1.200000e+002
      vertex  5.000000e+000  5.000000e+000  0.000000e+000
      vertex  5.000000e+000  2.950000e+002  1.200000e+002
    endloop
  endfacet
  facet normal  1.000000e+000  0.000000e+000  0.000000e+000
    outer loop
      vertex  5.000000e+000  2.950000e+002  1.200000e+002
      vertex  5.000000e+000  5.000000e+000  0.000000e+000
      vertex  5.000000e+000  2.950000e+002  0.000000e+000
    endloop
  endfacet
  facet normal  0.000000e+000  1.000000e+000  0.000000e+000
    outer loop
      vertex  3.000000e+002  5.000000e+000 -2.842171e-014
      vertex  2.950000e+002  5.000000e+000 -3.197442e-014
      vertex  3.000000e+002  5.000000e+000  1.200000e+002
    endloop
  endfacet
  facet normal  0.000000e+000  1.000000e+000  0.000000e+000
    outer loop
      vertex  3.000000e+002  5.000000e+000  1.200000e+002
      vertex  2.950000e+002  5.000000e+000 -3.197442e-014
      vertex  2.950000e+002  5.000000e+000  1.200000e+002
    endloop
  endfacet
  facet normal  -0.000000e+000  1.000000e+000  0.000000e+000
    outer loop
      vertex  2.950000e+002  5.000000e+000 -3.197442e-014
      vertex  1.500000e+002  5.000000e+000  0.000000e+000
      vertex  2.950000e+002  5.000000e+000  1.200000e+002
    endloop
  endfacet
  facet normal  0.000000e+000  9.999999e-001  0.000000e+000
    outer loop
      vertex  2.950000e+002  5.000000e+000  1.200000e+002
      vertex  1.500000e+002  5.000000e+000  0.000000e+000
      vertex  1.500000e+002  5.000000e+000  1.100000e+002
    endloop
  endfacet
  facet normal  0.000000e+000  1.000000e+000  0.000000e+000
    outer loop
      vertex  1.500000e+002  5.000000e+000  1.100000e+002
      vertex  1.450000e+002  5.000000e+000  1.100000e+002
      vertex  2.950000e+002  5.000000e+000  1.200000e+002
    endloop
  endfacet
  facet normal  0.000000e+000  1.000000e+000  0.000000e+000
    outer loop
      vertex  2.950000e+002  5.000000e+000  1.200000e+002
      vertex  1.450000e+002  5.000000e+000  1.100000e+002
      vertex  5.000000e+000  5.000000e+000  1.200000e+002
    endloop
  endfacet
  facet normal  0.000000e+000  9.999999e-001  -0.000000e+000
    outer loop
      vertex  1.450000e+002  5.000000e+000  1.100000e+002
      vertex  1.450000e+002  5.000000e+000  0.000000e+000
      vertex  5.000000e+000  5.000000e+000  1.200000e+002
    endloop
  endfacet
  facet normal  0.000000e+000  1.000000e+000  0.000000e+000
    outer loop
      vertex  5.000000e+000  5.000000e+000  1.200000e+002
      vertex  1.450000e+002  5.000000e+000  0.000000e+000
      vertex  5.000000e+000  5.000000e+000  0.000000e+000
    endloop
  endfacet
  facet normal  0.000000e+000 -1.000000e+000  0.000000e+000
    outer loop
      vertex  3.000000e+002  2.950000e+002  1.200000e+002
      vertex  2.950000e+002  2.950000e+002  1.200000e+002
      vertex  3.000000e+002  2.950000e+002  0.000000e+000
    endloop
  endfacet
  facet normal  0.000000e+000 -1.000000e+000  0.000000e+000
    outer loop
      vertex  1.450000e+002  2.950000e+002  1.100000e+002
      vertex  1.500000e+002  2.950000e+002  1.100000e+002
      vertex  2.950000e+002  2.950000e+002  1.200000e+002
    endloop
  endfacet
  facet normal  -0.000000e+000 -1.000000e+000  0.000000e+000
    outer loop
      vertex  1.450000e+002  2.950000e+002  1.100000e+002
      vertex  2.950000e+002  2.950000e+002  1.200000e+002
      vertex  5.000000e+000  2.950000e+002  1.200000e+002
    endloop
  endfacet
  facet normal  0.000000e+000 -1.000000e+000  0.000000e+000
    outer loop
      vertex  1.450000e+002  2.950000e+002  1.100000e+002
      vertex  5.000000e+000  2.950000e+002  1.200000e+002
      vertex  5.000000e+001  2.950000e+002  8.000000e+001
    endloop
  endfacet
  facet normal  0.000000e+000 -1.000000e+000  0.000000e+000
    outer loop
      vertex  1.450000e+002  2.950000e+002  1.100000e+002
      vertex  5.000000e+001  2.950000e+002  8.000000e+001
      vertex  1.000000e+002  2.950000e+002  8.000000e+001
    endloop
  endfacet
  facet normal  0.000000e+000 -1.000000e+000  0.000000e+000
    outer loop
      vertex  1.450000e+002  2.950000e+002  1.100000e+002
      vertex  1.000000e+002  2.950000e+002  8.000000e+001
      vertex  1.000000e+002  2.950000e+002  5.000000e+001
    endloop
  endfacet
  facet normal  0.000000e+000 -1.000000e+000  0.000000e+000
    outer loop
      vertex  1.450000e+002  2.950000e+002  1.100000e+002
      vertex  1.000000e+002  2.950000e+002  5.000000e+001
      vertex  1.450000e+002  2.950000e+002  0.000000e+000
    endloop
  endfacet
  facet normal  0.000000e+000 -1.000000e+000  0.000000e+000
    outer loop
      vertex  5.000000e+000  2.950000e+002  1.200000e+002
      vertex  5.000000e+000  2.950000e+002  0.000000e+000
      vertex  5.000000e+001  2.950000e+002  8.000000e+001
    endloop
  endfacet
  facet normal  0.000000e+000 -1.000000e+000  -0.000000e+000
    outer loop
      vertex  5.000000e+001  2.950000e+002  8.000000e+001
      vertex  5.000000e+000  2.950000e+002  0.000000e+000
      vertex  5.000000e+001  2.950000e+002  5.000000e+001
    endloop
  endfacet
  facet normal  0.000000e+000 -1.000000e+000  0.000000e+000
    outer loop
      vertex  5.000000e+000  2.950000e+002  0.000000e+000
      vertex  1.450000e+002  2.950000e+002  0.000000e+000
      vertex  5.000000e+001  2.950000e+002  5.000000e+001
    endloop
  endfacet
  facet normal  0.000000e+000 -1.000000e+000  0.000000e+000
    outer loop
      vertex  5.000000e+001  2.950000e+002  5.000000e+001
      vertex  1.450000e+002  2.950000e+002  0.000000e+000
      vertex  1.000000e+002  2.950000e+002  5.000000e+001
    endloop
  endfacet
  facet normal  0.000000e+000 -9.999999e-001  0.000000e+000
    outer loop
      vertex  1.500000e+002  2.950000e+002  0.000000e+000
      vertex  2.950000e+002  2.950000e+002  0.000000e+000
      vertex  1.500000e+002  2.950000e+002  1.100000e+002
    endloop
  endfacet
  facet normal  0.000000e+000 -1.000000e+000  0.000000e+000
    outer loop
      vertex  1.500000e+002  2.950000e+002  1.100000e+002
      vertex  2.950000e+002  2.950000e+002  0.000000e+000
      vertex  3.000000e+002  2.950000e+002  0.000000e+000
    endloop
  endfacet
  facet normal  0.000000e+000 -1.000000e+000  0.000000e+000
    outer loop
      vertex  1.500000e+002  2.950000e+002  1.100000e+002
      vertex  3.000000e+002  2.950000e+002  0.000000e+000
      vertex  2.950000e+002  2.950000e+002  1.200000e+002
    endloop
  endfacet
  facet normal  1.000000e+000  0.000000e+000  0.000000e+000
    outer loop
      vertex  3.000000e+002  0.000000e+000  0.000000e+000
      vertex  3.000000e+002  5.000000e+000 -2.842171e-014
      vertex  3.000000e+002  0.000000e+000  1.250000e+002
    endloop
  endfacet
  facet normal  1.000000e+000  0.000000e+000  0.000000e+000
    outer loop
      vertex  3.000000e+002  0.000000e+000  1.250000e+002
      vertex  3.000000e+002  5.000000e+000 -2.842171e-014
      vertex  3.000000e+002  5.000000e+000  1.200000e+002
    endloop
  endfacet
  facet normal  1.000000e+000  0.000000e+000  -0.000000e+000
    outer loop
      vertex  3.000000e+002  0.000000e+000  1.250000e+002
      vertex  3.000000e+002  5.000000e+000  1.200000e+002
      vertex  3.000000e+002  3.000000e+002  1.250000e+002
    endloop
  endfacet
  facet normal  1.000000e+000  0.000000e+000  0.000000e+000
    outer loop
      vertex  3.000000e+002  3.000000e+002  1.250000e+002
      vertex  3.000000e+002  5.000000e+000  1.200000e+002
      vertex  3.000000e+002  2.950000e+002  1.200000e+002
    endloop
  endfacet
  facet normal  1.000000e+000  -0.000000e+000  0.000000e+000
    outer loop
      vertex  3.000000e+002  3.000000e+002  1.250000e+002
      vertex  3.000000e+002  2.950000e+002  1.200000e+002
      vertex  3.000000e+002  3.000000e+002  0.000000e+000
    endloop
  endfacet
  facet normal  1.000000e+000  0.000000e+000  0.000000e+000
    outer loop
      vertex  3.000000e+002  3.000000e+002  0.000000e+000
      vertex  3.000000e+002  2.950000e+002  1.200000e+002
      vertex  3.000000e+002  2.950000e+002  0.000000e+000
    endloop
  endfacet
  facet normal  0.000000e+000  0.000000e+000 -1.000000e+000
    outer loop
      vertex  0.000000e+000  0.000000e+000  0.000000e+000
      vertex  0.000000e+000  3.000000e+002  0.000000e+000
      vertex  5.000000e+000  2.950000e+002  0.000000e+000
    endloop
  endfacet
  facet normal  0.000000e+000  -0.000000e+000 -1.000000e+000
    outer loop
      vertex  0.000000e+000  0.000000e+000  0.000000e+000
      vertex  5.000000e+000  2.950000e+002  0.000000e+000
      vertex  5.000000e+000  5.000000e+000  0.000000e+000
    endloop
  endfacet
  facet normal  0.000000e+000  -0.000000e+000 -1.000000e+000
    outer loop
      vertex  0.000000e+000  0.000000e+000  0.000000e+000
      vertex  5.000000e+000  5.000000e+000  0.000000e+000
      vertex  1.450000e+002  5.000000e+000  0.000000e+000
    endloop
  endfacet
  facet normal  0.000000e+000  -0.000000e+000 -1.000000e+000
    outer loop
      vertex  0.000000e+000  0.000000e+000  0.000000e+000
      vertex  1.450000e+002  5.000000e+000  0.000000e+000
      vertex  1.500000e+002  5.000000e+000  0.000000e+000
    endloop
  endfacet
  facet normal -2.205133e-016  6.615398e-015 -1.000000e+000
    outer loop
      vertex  0.000000e+000  0.000000e+000  0.000000e+000
      vertex  1.500000e+002  5.000000e+000  0.000000e+000
      vertex  2.950000e+002  5.000000e+000 -3.197442e-014
    endloop
  endfacet
  facet normal  7.105427e-016 -4.831690e-014 -1.000000e+000
    outer loop
      vertex  0.000000e+000  0.000000e+000  0.000000e+000
      vertex  2.950000e+002  5.000000e+000 -3.197442e-014
      vertex  3.000000e+002  5.000000e+000 -2.842171e-014
    endloop
  endfacet
  facet normal  0.000000e+000 -5.684342e-015 -1.000000e+000
    outer loop
      vertex  0.000000e+000  0.000000e+000  0.000000e+000
      vertex  3.000000e+002  5.000000e+000 -2.842171e-014
      vertex  3.000000e+002  0.000000e+000  0.000000e+000
    endloop
  endfacet
  facet normal  0.000000e+000  0.000000e+000 -1.000000e+000
    outer loop
      vertex  3.000000e+002  3.000000e+002  0.000000e+000
      vertex  3.000000e+002  2.950000e+002  0.000000e+000
      vertex  2.950000e+002  2.950000e+002  0.000000e+000
    endloop
  endfacet
  facet normal  0.000000e+000  0.000000e+000 -1.000000e+000
    outer loop
      vertex  3.000000e+002  3.000000e+002  0.000000e+000
      vertex  2.950000e+002  2.950000e+002  0.000000e+000
      vertex  1.500000e+002  2.950000e+002  0.000000e+000
    endloop
  endfacet
  facet normal  0.000000e+000  0.000000e+000 -1.000000e+000
    outer loop
      vertex  3.000000e+002  3.000000e+002  0.000000e+000
      vertex  1.500000e+002  2.950000e+002  0.000000e+000
      vertex  1.450000e+002  2.950000e+002  0.000000e+000
    endloop
  endfacet
  facet normal  0.000000e+000  0.000000e+000 -1.000000e+000
    outer loop
      vertex  3.000000e+002  3.000000e+002  0.000000e+000
      vertex  1.450000e+002  2.950000e+002  0.000000e+000
      vertex  5.000000e+000  2.950000e+002  0.000000e+000
    endloop
  endfacet
  facet normal  0.000000e+000  0.000000e+000 -1.000000e+000
    outer loop
      vertex  3.000000e+002  3.000000e+002  0.000000e+000
      vertex  5.000000e+000  2.950000e+002  0.000000e+000
      vertex  0.000000e+000  3.000000e+002  0.000000e+000
    endloop
  endfacet
  facet normal  0.000000e+000  0.000000e+000 -1.000000e+000
    outer loop
      vertex  1.450000e+002  5.000000e+000  0.000000e+000
      vertex  1.450000e+002  2.950000e+002  0.000000e+000
      vertex  1.500000e+002  5.000000e+000  0.000000e+000
    endloop
  endfacet
  facet normal  0.000000e+000  0.000000e+000 -1.000000e+000
    outer loop
      vertex  1.500000e+002  5.000000e+000  0.000000e+000
      vertex  1.450000e+002  2.950000e+002  0.000000e+000
      vertex  1.500000e+002  2.950000e+002  0.000000e+000
    endloop
  endfacet
  facet normal  0.000000e+000  1.000000e+000  -0.000000e+000
    outer loop
      vertex  3.000000e+002  3.000000e+002  1.250000e+002
      vertex  3.000000e+002  3.000000e+002  0.000000e+000
      vertex  1.000000e+002  3.000000e+002  5.000000e+001
    endloop
  endfacet
  facet normal  0.000000e+000  1.000000e+000  0.000000e+000
    outer loop
      vertex  3.000000e+002  3.000000e+002  1.250000e+002
      vertex  1.000000e+002  3.000000e+002  5.000000e+001
      vertex  1.000000e+002  3.000000e+002  8.000000e+001
    endloop
  endfacet
  facet normal  0.000000e+000  1.000000e+000  -0.000000e+000
    outer loop
      vertex  3.000000e+002  3.000000e+002  1.250000e+002
      vertex  1.000000e+002  3.000000e+002  8.000000e+001
      vertex  5.000000e+001  3.000000e+002  8.000000e+001
    endloop
  endfacet
  facet normal  0.000000e+000  1.000000e+000  -0.000000e+000
    outer loop
      vertex  3.000000e+002  3.000000e+002  1.250000e+002
      vertex  5.000000e+001  3.000000e+002  8.000000e+001
      vertex  0.000000e+000  3.000000e+002  1.250000e+002
    endloop
  endfacet
  facet normal  0.000000e+000  1.000000e+000  0.000000e+000
    outer loop
      vertex  0.000000e+000  3.000000e+002  1.250000e+002
      vertex  5.000000e+001  3.000000e+002  8.000000e+001
      vertex  0.000000e+000  3.000000e+002  0.000000e+000
    endloop
  endfacet
  facet normal  0.000000e+000  1.000000e+000  0.000000e+000
    outer loop
      vertex  0.000000e+000  3.000000e+002  0.000000e+000
      vertex  5.000000e+001  3.000000e+002  8.000000e+001
      vertex  5.000000e+001  3.000000e+002  5.000000e+001
    endloop
  endfacet
  facet normal  0.000000e+000  1.000000e+000  0.000000e+000
    outer loop
      vertex  0.000000e+000  3.000000e+002  0.000000e+000
      vertex  5.000000e+001  3.000000e+002  5.000000e+001
      vertex  3.000000e+002  3.000000e+002  0.000000e+000
    endloop
  endfacet
  facet normal  0.000000e+000  1.000000e+000  0.000000e+000
    outer loop
      vertex  3.000000e+002  3.000000e+002  0.000000e+000
      vertex  5.000000e+001  3.000000e+002  5.000000e+001
      vertex  1.000000e+002  3.000000e+002  5.000000e+001
    endloop
  endfacet
  facet normal -1.000000e+000  -0.000000e+000  0.000000e+000
    outer loop
      vertex  1.000000e+002  2.950000e+002  8.000000e+001
      vertex  1.000000e+002  3.000000e+002  8.000000e+001
      vertex  1.000000e+002  2.950000e+002  5.000000e+001
    endloop
  endfacet
  facet normal -1.000000e+000  0.000000e+000  0.000000e+000
    outer loop
      vertex  1.000000e+002  2.950000e+002  5.000000e+001
      vertex  1.000000e+002  3.000000e+002  8.000000e+001
      vertex  1.000000e+002  3.000000e+002  5.000000e+001
    endloop
  endfacet
  facet normal  0.000000e+000  0.000000e+000  1.000000e+000
    outer loop
      vertex  5.000000e+001  2.950000e+002  5.000000e+001
      vertex  1.000000e+002  2.950000e+002  5.000000e+001
      vertex  5.000000e+001  3.000000e+002  5.000000e+001
    endloop
  endfacet
  facet normal  -0.000000e+000  0.000000e+000  1.000000e+000
    outer loop
      vertex  5.000000e+001  3.000000e+002  5.000000e+001
      vertex  1.000000e+002  2.950000e+002  5.000000e+001
      vertex  1.000000e+002  3.000000e+002  5.000000e+001
    endloop
  endfacet
  facet normal  1.000000e+000  0.000000e+000  0.000000e+000
    outer loop
      vertex  5.000000e+001  2.950000e+002  5.000000e+001
      vertex  5.000000e+001  3.000000e+002  5.000000e+001
      vertex  5.000000e+001  2.950000e+002  8.000000e+001
    endloop
  endfacet
  facet normal  1.000000e+000  -0.000000e+000  0.000000e+000
    outer loop
      vertex  5.000000e+001  2.950000e+002  8.000000e+001
      vertex  5.000000e+001  3.000000e+002  5.000000e+001
      vertex  5.000000e+001  3.000000e+002  8.000000e+001
    endloop
  endfacet
  facet normal  0.000000e+000  0.000000e+000 -1.000000e+000
    outer loop
      vertex  1.000000e+002  2.950000e+002  8.000000e+001
      vertex  5.000000e+001  2.950000e+002  8.000000e+001
      vertex  1.000000e+002  3.000000e+002  8.000000e+001
    endloop
  endfacet
  facet normal  -0.000000e+000  0.000000e+000 -1.000000e+000
    outer loop
      vertex  1.000000e+002  3.000000e+002  8.000000e+001
      vertex  5.000000e+001  2.950000e+002  8.000000e+001
      vertex  5.000000e+001  3.000000e+002  8.000000e+001
    endloop
  endfacet
  facet normal -1.000000e+000  0.000000e+000  0.000000e+000
    outer loop
      vertex  0.000000e+000  3.000000e+002  1.250000e+002
      vertex  0.000000e+000  3.000000e+002  0.000000e+000
      vertex  0.000000e+000  0.000000e+000  1.250000e+002
    endloop
  endfacet
  facet normal -1.000000e+000  0.000000e+000  0.000000e+000
    outer loop
      vertex  0.000000e+000  0.000000e+000  1.250000e+002
      vertex  0.000000e+000  3.000000e+002  0.000000e+000
      vertex  0.000000e+000  0.000000e+000  0.000000e+000
    endloop
  endfacet
  facet normal  0.000000e+000 -1.000000e+000  0.000000e+000
    outer loop
      vertex  0.000000e+000  0.000000e+000  1.250000e+002
      vertex  0.000000e+000  0.000000e+000  0.000000e+000
      vertex  3.000000e+002  0.000000e+000  1.250000e+002
    endloop
  endfacet
  facet normal  0.000000e+000 -1.000000e+000  -0.000000e+000
    outer loop
      vertex  3.000000e+002  0.000000e+000  1.250000e+002
      vertex  0.000000e+000  0.000000e+000  0.000000e+000
      vertex  3.000000e+002  0.000000e+000  0.000000e+000
    endloop
  endfacet
endsolid CATIA STL
