solid CATIA STL
  facet normal  0.000000e+000  1.000000e+000  -0.000000e+000
    outer loop
      vertex  1.000000e+002  3.000000e+002  2.000000e+002
      vertex  1.000000e+002  3.000000e+002  1.250000e+002
      vertex  5.000000e+001  3.000000e+002  2.000000e+002
    endloop
  endfacet
  facet normal  0.000000e+000  1.000000e+000  0.000000e+000
    outer loop
      vertex  5.000000e+001  3.000000e+002  2.000000e+002
      vertex  1.000000e+002  3.000000e+002  1.250000e+002
      vertex  5.000000e+001  3.000000e+002  1.250000e+002
    endloop
  endfacet
  facet normal  -0.000000e+000 -1.000000e+000  -0.000000e+000
    outer loop
      vertex  8.900000e+001  2.300000e+002  1.250000e+002
      vertex  8.900000e+001  2.300000e+002  2.050000e+002
      vertex  8.000000e+001  2.300000e+002  2.050000e+002
    endloop
  endfacet
  facet normal  -0.000000e+000 -1.000000e+000  -0.000000e+000
    outer loop
      vertex  8.900000e+001  2.300000e+002  1.250000e+002
      vertex  8.000000e+001  2.300000e+002  2.050000e+002
      vertex  7.000000e+001  2.300000e+002  2.050000e+002
    endloop
  endfacet
  facet normal  -0.000000e+000 -1.000000e+000  -0.000000e+000
    outer loop
      vertex  8.900000e+001  2.300000e+002  1.250000e+002
      vertex  7.000000e+001  2.300000e+002  2.050000e+002
      vertex  6.100000e+001  2.300000e+002  2.050000e+002
    endloop
  endfacet
  facet normal  0.000000e+000 -1.000000e+000  0.000000e+000
    outer loop
      vertex  8.900000e+001  2.300000e+002  1.250000e+002
      vertex  6.100000e+001  2.300000e+002  2.050000e+002
      vertex  6.100000e+001  2.300000e+002  1.250000e+002
    endloop
  endfacet
  facet normal  0.000000e+000 -1.000000e+000  0.000000e+000
    outer loop
      vertex  8.000000e+001  2.300000e+002  2.500000e+002
      vertex  8.000000e+001  2.300000e+002  2.050000e+002
      vertex  9.500000e+001  2.300000e+002  2.500000e+002
    endloop
  endfacet
  facet normal  0.000000e+000 -1.000000e+000  0.000000e+000
    outer loop
      vertex  9.500000e+001  2.300000e+002  2.500000e+002
      vertex  8.000000e+001  2.300000e+002  2.050000e+002
      vertex  8.900000e+001  2.300000e+002  2.050000e+002
    endloop
  endfacet
  facet normal  0.000000e+000 -1.000000e+000  0.000000e+000
    outer loop
      vertex  9.500000e+001  2.300000e+002  2.500000e+002
      vertex  8.900000e+001  2.300000e+002  2.050000e+002
      vertex  9.500000e+001  2.300000e+002  2.050000e+002
    endloop
  endfacet
  facet normal  0.000000e+000 -1.000000e+000  0.000000e+000
    outer loop
      vertex  5.500000e+001  2.300000e+002  2.500000e+002
      vertex  5.500000e+001  2.300000e+002  2.050000e+002
      vertex  7.000000e+001  2.300000e+002  2.500000e+002
    endloop
  endfacet
  facet normal  0.000000e+000 -1.000000e+000  0.000000e+000
    outer loop
      vertex  7.000000e+001  2.300000e+002  2.500000e+002
      vertex  5.500000e+001  2.300000e+002  2.050000e+002
      vertex  6.100000e+001  2.300000e+002  2.050000e+002
    endloop
  endfacet
  facet normal  0.000000e+000 -1.000000e+000  0.000000e+000
    outer loop
      vertex  7.000000e+001  2.300000e+002  2.500000e+002
      vertex  6.100000e+001  2.300000e+002  2.050000e+002
      vertex  7.000000e+001  2.300000e+002  2.050000e+002
    endloop
  endfacet
  facet normal -1.000000e+000  0.000000e+000  0.000000e+000
    outer loop
      vertex  5.000000e+001  2.000000e+002  2.500000e+002
      vertex  5.000000e+001  3.000000e+002  1.250000e+002
      vertex  5.000000e+001  2.000000e+002  1.250000e+002
    endloop
  endfacet
  facet normal -1.000000e+000  0.000000e+000  0.000000e+000
    outer loop
      vertex  5.000000e+001  3.000000e+002  1.250000e+002
      vertex  5.000000e+001  2.000000e+002  2.500000e+002
      vertex  5.000000e+001  3.000000e+002  2.000000e+002
    endloop
  endfacet
  facet normal -1.000000e+000  0.000000e+000  0.000000e+000
    outer loop
      vertex  5.000000e+001  3.000000e+002  2.000000e+002
      vertex  5.000000e+001  2.000000e+002  2.500000e+002
      vertex  5.000000e+001  4.000000e+002  2.500000e+002
    endloop
  endfacet
  facet normal -1.000000e+000  0.000000e+000  0.000000e+000
    outer loop
      vertex  5.000000e+001  3.000000e+002  2.000000e+002
      vertex  5.000000e+001  4.000000e+002  2.500000e+002
      vertex  5.000000e+001  3.500000e+002  2.000000e+002
    endloop
  endfacet
  facet normal -1.000000e+000  0.000000e+000  0.000000e+000
    outer loop
      vertex  5.000000e+001  3.500000e+002  2.000000e+002
      vertex  5.000000e+001  4.000000e+002  2.500000e+002
      vertex  5.000000e+001  4.000000e+002  1.900000e+002
    endloop
  endfacet
  facet normal -1.000000e+000  0.000000e+000  0.000000e+000
    outer loop
      vertex  5.000000e+001  3.500000e+002  2.000000e+002
      vertex  5.000000e+001  4.000000e+002  1.900000e+002
      vertex  5.000000e+001  3.500000e+002  1.900000e+002
    endloop
  endfacet
  facet normal  1.000000e+000  0.000000e+000  0.000000e+000
    outer loop
      vertex  1.000000e+002  4.000000e+002  2.500000e+002
      vertex  1.000000e+002  3.500000e+002  1.900000e+002
      vertex  1.000000e+002  4.000000e+002  1.900000e+002
    endloop
  endfacet
  facet normal  1.000000e+000  0.000000e+000  0.000000e+000
    outer loop
      vertex  1.000000e+002  3.500000e+002  1.900000e+002
      vertex  1.000000e+002  4.000000e+002  2.500000e+002
      vertex  1.000000e+002  3.500000e+002  2.000000e+002
    endloop
  endfacet
  facet normal  1.000000e+000  0.000000e+000  -0.000000e+000
    outer loop
      vertex  1.000000e+002  3.500000e+002  2.000000e+002
      vertex  1.000000e+002  4.000000e+002  2.500000e+002
      vertex  1.000000e+002  2.000000e+002  2.500000e+002
    endloop
  endfacet
  facet normal  1.000000e+000  0.000000e+000  0.000000e+000
    outer loop
      vertex  1.000000e+002  3.500000e+002  2.000000e+002
      vertex  1.000000e+002  2.000000e+002  2.500000e+002
      vertex  1.000000e+002  3.000000e+002  2.000000e+002
    endloop
  endfacet
  facet normal  1.000000e+000  0.000000e+000  0.000000e+000
    outer loop
      vertex  1.000000e+002  3.000000e+002  2.000000e+002
      vertex  1.000000e+002  2.000000e+002  2.500000e+002
      vertex  1.000000e+002  2.000000e+002  1.250000e+002
    endloop
  endfacet
  facet normal  1.000000e+000  0.000000e+000  0.000000e+000
    outer loop
      vertex  1.000000e+002  3.000000e+002  2.000000e+002
      vertex  1.000000e+002  2.000000e+002  1.250000e+002
      vertex  1.000000e+002  3.000000e+002  1.250000e+002
    endloop
  endfacet
  facet normal  1.000000e+000  0.000000e+000  0.000000e+000
    outer loop
      vertex  6.100000e+001  2.300000e+002  1.250000e+002
      vertex  6.100000e+001  2.300000e+002  2.050000e+002
      vertex  6.100000e+001  2.050000e+002  1.250000e+002
    endloop
  endfacet
  facet normal  1.000000e+000  0.000000e+000  0.000000e+000
    outer loop
      vertex  6.100000e+001  2.050000e+002  1.250000e+002
      vertex  6.100000e+001  2.300000e+002  2.050000e+002
      vertex  6.100000e+001  2.050000e+002  2.050000e+002
    endloop
  endfacet
  facet normal -1.000000e+000  0.000000e+000  0.000000e+000
    outer loop
      vertex  8.900000e+001  2.050000e+002  1.250000e+002
      vertex  8.900000e+001  2.050000e+002  2.050000e+002
      vertex  8.900000e+001  2.300000e+002  1.250000e+002
    endloop
  endfacet
  facet normal -1.000000e+000  0.000000e+000  0.000000e+000
    outer loop
      vertex  8.900000e+001  2.300000e+002  1.250000e+002
      vertex  8.900000e+001  2.050000e+002  2.050000e+002
      vertex  8.900000e+001  2.300000e+002  2.050000e+002
    endloop
  endfacet
  facet normal  0.000000e+000  1.000000e+000  0.000000e+000
    outer loop
      vertex  5.500000e+001  2.050000e+002  2.500000e+002
      vertex  9.500000e+001  2.050000e+002  2.500000e+002
      vertex  9.500000e+001  2.050000e+002  2.050000e+002
    endloop
  endfacet
  facet normal  0.000000e+000  1.000000e+000  0.000000e+000
    outer loop
      vertex  5.500000e+001  2.050000e+002  2.500000e+002
      vertex  9.500000e+001  2.050000e+002  2.050000e+002
      vertex  8.900000e+001  2.050000e+002  2.050000e+002
    endloop
  endfacet
  facet normal  0.000000e+000  1.000000e+000  0.000000e+000
    outer loop
      vertex  5.500000e+001  2.050000e+002  2.500000e+002
      vertex  8.900000e+001  2.050000e+002  2.050000e+002
      vertex  6.100000e+001  2.050000e+002  2.050000e+002
    endloop
  endfacet
  facet normal  0.000000e+000  1.000000e+000  0.000000e+000
    outer loop
      vertex  5.500000e+001  2.050000e+002  2.500000e+002
      vertex  6.100000e+001  2.050000e+002  2.050000e+002
      vertex  5.500000e+001  2.050000e+002  2.050000e+002
    endloop
  endfacet
  facet normal  0.000000e+000  1.000000e+000  0.000000e+000
    outer loop
      vertex  8.900000e+001  2.050000e+002  1.250000e+002
      vertex  6.100000e+001  2.050000e+002  1.250000e+002
      vertex  8.900000e+001  2.050000e+002  2.050000e+002
    endloop
  endfacet
  facet normal  0.000000e+000  1.000000e+000  0.000000e+000
    outer loop
      vertex  8.900000e+001  2.050000e+002  2.050000e+002
      vertex  6.100000e+001  2.050000e+002  1.250000e+002
      vertex  6.100000e+001  2.050000e+002  2.050000e+002
    endloop
  endfacet
  facet normal  0.000000e+000 -1.000000e+000  -0.000000e+000
    outer loop
      vertex  1.000000e+002  2.000000e+002  1.250000e+002
      vertex  1.000000e+002  2.000000e+002  2.500000e+002
      vertex  5.000000e+001  2.000000e+002  1.250000e+002
    endloop
  endfacet
  facet normal  0.000000e+000 -1.000000e+000  0.000000e+000
    outer loop
      vertex  5.000000e+001  2.000000e+002  1.250000e+002
      vertex  1.000000e+002  2.000000e+002  2.500000e+002
      vertex  5.000000e+001  2.000000e+002  2.500000e+002
    endloop
  endfacet
  facet normal  -0.000000e+000  0.000000e+000 -1.000000e+000
    outer loop
      vertex  5.000000e+001  3.000000e+002  1.250000e+002
      vertex  6.100000e+001  2.050000e+002  1.250000e+002
      vertex  5.000000e+001  2.000000e+002  1.250000e+002
    endloop
  endfacet
  facet normal  0.000000e+000  0.000000e+000 -1.000000e+000
    outer loop
      vertex  5.000000e+001  2.000000e+002  1.250000e+002
      vertex  6.100000e+001  2.050000e+002  1.250000e+002
      vertex  8.900000e+001  2.050000e+002  1.250000e+002
    endloop
  endfacet
  facet normal  0.000000e+000  -0.000000e+000 -1.000000e+000
    outer loop
      vertex  5.000000e+001  2.000000e+002  1.250000e+002
      vertex  8.900000e+001  2.050000e+002  1.250000e+002
      vertex  1.000000e+002  2.000000e+002  1.250000e+002
    endloop
  endfacet
  facet normal  0.000000e+000  0.000000e+000 -1.000000e+000
    outer loop
      vertex  6.100000e+001  2.050000e+002  1.250000e+002
      vertex  5.000000e+001  3.000000e+002  1.250000e+002
      vertex  6.100000e+001  2.300000e+002  1.250000e+002
    endloop
  endfacet
  facet normal  0.000000e+000  0.000000e+000 -1.000000e+000
    outer loop
      vertex  6.100000e+001  2.300000e+002  1.250000e+002
      vertex  5.000000e+001  3.000000e+002  1.250000e+002
      vertex  1.000000e+002  3.000000e+002  1.250000e+002
    endloop
  endfacet
  facet normal  0.000000e+000  0.000000e+000 -9.999999e-001
    outer loop
      vertex  6.100000e+001  2.300000e+002  1.250000e+002
      vertex  1.000000e+002  3.000000e+002  1.250000e+002
      vertex  8.900000e+001  2.300000e+002  1.250000e+002
    endloop
  endfacet
  facet normal  0.000000e+000  0.000000e+000 -1.000000e+000
    outer loop
      vertex  8.900000e+001  2.300000e+002  1.250000e+002
      vertex  1.000000e+002  3.000000e+002  1.250000e+002
      vertex  1.000000e+002  2.000000e+002  1.250000e+002
    endloop
  endfacet
  facet normal  0.000000e+000  0.000000e+000 -1.000000e+000
    outer loop
      vertex  8.900000e+001  2.300000e+002  1.250000e+002
      vertex  1.000000e+002  2.000000e+002  1.250000e+002
      vertex  8.900000e+001  2.050000e+002  1.250000e+002
    endloop
  endfacet
  facet normal  -0.000000e+000  0.000000e+000 -1.000000e+000
    outer loop
      vertex  5.000000e+001  4.000000e+002  1.900000e+002
      vertex  7.000000e+001  3.530000e+002  1.900000e+002
      vertex  5.000000e+001  3.500000e+002  1.900000e+002
    endloop
  endfacet
  facet normal  0.000000e+000  0.000000e+000 -1.000000e+000
    outer loop
      vertex  5.000000e+001  3.500000e+002  1.900000e+002
      vertex  7.000000e+001  3.530000e+002  1.900000e+002
      vertex  8.000000e+001  3.530000e+002  1.900000e+002
    endloop
  endfacet
  facet normal  0.000000e+000  -0.000000e+000 -1.000000e+000
    outer loop
      vertex  5.000000e+001  3.500000e+002  1.900000e+002
      vertex  8.000000e+001  3.530000e+002  1.900000e+002
      vertex  1.000000e+002  3.500000e+002  1.900000e+002
    endloop
  endfacet
  facet normal  0.000000e+000  0.000000e+000 -1.000000e+000
    outer loop
      vertex  7.000000e+001  3.530000e+002  1.900000e+002
      vertex  5.000000e+001  4.000000e+002  1.900000e+002
      vertex  7.000000e+001  3.650000e+002  1.900000e+002
    endloop
  endfacet
  facet normal  0.000000e+000  0.000000e+000 -1.000000e+000
    outer loop
      vertex  7.000000e+001  3.650000e+002  1.900000e+002
      vertex  5.000000e+001  4.000000e+002  1.900000e+002
      vertex  1.000000e+002  4.000000e+002  1.900000e+002
    endloop
  endfacet
  facet normal  0.000000e+000  0.000000e+000 -1.000000e+000
    outer loop
      vertex  7.000000e+001  3.650000e+002  1.900000e+002
      vertex  1.000000e+002  4.000000e+002  1.900000e+002
      vertex  8.000000e+001  3.650000e+002  1.900000e+002
    endloop
  endfacet
  facet normal  0.000000e+000  0.000000e+000 -1.000000e+000
    outer loop
      vertex  8.000000e+001  3.650000e+002  1.900000e+002
      vertex  1.000000e+002  4.000000e+002  1.900000e+002
      vertex  1.000000e+002  3.500000e+002  1.900000e+002
    endloop
  endfacet
  facet normal  0.000000e+000  0.000000e+000 -1.000000e+000
    outer loop
      vertex  8.000000e+001  3.650000e+002  1.900000e+002
      vertex  1.000000e+002  3.500000e+002  1.900000e+002
      vertex  8.000000e+001  3.530000e+002  1.900000e+002
    endloop
  endfacet
  facet normal  0.000000e+000  0.000000e+000  1.000000e+000
    outer loop
      vertex  7.000000e+001  2.300000e+002  2.050000e+002
      vertex  8.000000e+001  2.300000e+002  2.050000e+002
      vertex  7.000000e+001  3.530000e+002  2.050000e+002
    endloop
  endfacet
  facet normal  -0.000000e+000  0.000000e+000  1.000000e+000
    outer loop
      vertex  7.000000e+001  3.530000e+002  2.050000e+002
      vertex  8.000000e+001  2.300000e+002  2.050000e+002
      vertex  8.000000e+001  3.530000e+002  2.050000e+002
    endloop
  endfacet
  facet normal  0.000000e+000 -1.000000e+000  0.000000e+000
    outer loop
      vertex  5.000000e+001  3.500000e+002  1.900000e+002
      vertex  1.000000e+002  3.500000e+002  1.900000e+002
      vertex  5.000000e+001  3.500000e+002  2.000000e+002
    endloop
  endfacet
  facet normal  0.000000e+000 -1.000000e+000  0.000000e+000
    outer loop
      vertex  5.000000e+001  3.500000e+002  2.000000e+002
      vertex  1.000000e+002  3.500000e+002  1.900000e+002
      vertex  1.000000e+002  3.500000e+002  2.000000e+002
    endloop
  endfacet
  facet normal  0.000000e+000  1.000000e+000  0.000000e+000
    outer loop
      vertex  7.000000e+001  3.530000e+002  2.050000e+002
      vertex  8.000000e+001  3.530000e+002  2.050000e+002
      vertex  7.000000e+001  3.530000e+002  1.900000e+002
    endloop
  endfacet
  facet normal  0.000000e+000  1.000000e+000  0.000000e+000
    outer loop
      vertex  7.000000e+001  3.530000e+002  1.900000e+002
      vertex  8.000000e+001  3.530000e+002  2.050000e+002
      vertex  8.000000e+001  3.530000e+002  1.900000e+002
    endloop
  endfacet
  facet normal  1.000000e+000  0.000000e+000  0.000000e+000
    outer loop
      vertex  7.000000e+001  2.300000e+002  2.500000e+002
      vertex  7.000000e+001  2.300000e+002  2.050000e+002
      vertex  7.000000e+001  3.650000e+002  2.500000e+002
    endloop
  endfacet
  facet normal  1.000000e+000  0.000000e+000  0.000000e+000
    outer loop
      vertex  7.000000e+001  3.650000e+002  2.500000e+002
      vertex  7.000000e+001  2.300000e+002  2.050000e+002
      vertex  7.000000e+001  3.530000e+002  2.050000e+002
    endloop
  endfacet
  facet normal  1.000000e+000  -0.000000e+000  0.000000e+000
    outer loop
      vertex  7.000000e+001  3.650000e+002  2.500000e+002
      vertex  7.000000e+001  3.530000e+002  2.050000e+002
      vertex  7.000000e+001  3.650000e+002  1.900000e+002
    endloop
  endfacet
  facet normal  1.000000e+000  0.000000e+000  0.000000e+000
    outer loop
      vertex  7.000000e+001  3.650000e+002  1.900000e+002
      vertex  7.000000e+001  3.530000e+002  2.050000e+002
      vertex  7.000000e+001  3.530000e+002  1.900000e+002
    endloop
  endfacet
  facet normal -1.000000e+000  0.000000e+000  0.000000e+000
    outer loop
      vertex  8.000000e+001  3.650000e+002  1.900000e+002
      vertex  8.000000e+001  3.530000e+002  1.900000e+002
      vertex  8.000000e+001  3.650000e+002  2.500000e+002
    endloop
  endfacet
  facet normal -1.000000e+000  0.000000e+000  0.000000e+000
    outer loop
      vertex  8.000000e+001  3.650000e+002  2.500000e+002
      vertex  8.000000e+001  3.530000e+002  1.900000e+002
      vertex  8.000000e+001  3.530000e+002  2.050000e+002
    endloop
  endfacet
  facet normal -1.000000e+000  0.000000e+000  0.000000e+000
    outer loop
      vertex  8.000000e+001  3.650000e+002  2.500000e+002
      vertex  8.000000e+001  3.530000e+002  2.050000e+002
      vertex  8.000000e+001  2.300000e+002  2.500000e+002
    endloop
  endfacet
  facet normal -1.000000e+000  0.000000e+000  0.000000e+000
    outer loop
      vertex  8.000000e+001  2.300000e+002  2.500000e+002
      vertex  8.000000e+001  3.530000e+002  2.050000e+002
      vertex  8.000000e+001  2.300000e+002  2.050000e+002
    endloop
  endfacet
  facet normal  -0.000000e+000  0.000000e+000 -1.000000e+000
    outer loop
      vertex  5.000000e+001  3.500000e+002  2.000000e+002
      vertex  1.000000e+002  3.500000e+002  2.000000e+002
      vertex  5.000000e+001  3.000000e+002  2.000000e+002
    endloop
  endfacet
  facet normal  0.000000e+000  0.000000e+000 -1.000000e+000
    outer loop
      vertex  5.000000e+001  3.000000e+002  2.000000e+002
      vertex  1.000000e+002  3.500000e+002  2.000000e+002
      vertex  1.000000e+002  3.000000e+002  2.000000e+002
    endloop
  endfacet
  facet normal  0.000000e+000 -1.000000e+000  0.000000e+000
    outer loop
      vertex  7.000000e+001  3.650000e+002  2.500000e+002
      vertex  7.000000e+001  3.650000e+002  1.900000e+002
      vertex  8.000000e+001  3.650000e+002  2.500000e+002
    endloop
  endfacet
  facet normal  0.000000e+000 -1.000000e+000  -0.000000e+000
    outer loop
      vertex  8.000000e+001  3.650000e+002  2.500000e+002
      vertex  7.000000e+001  3.650000e+002  1.900000e+002
      vertex  8.000000e+001  3.650000e+002  1.900000e+002
    endloop
  endfacet
  facet normal  0.000000e+000  0.000000e+000  1.000000e+000
    outer loop
      vertex  8.000000e+001  3.650000e+002  2.500000e+002
      vertex  8.000000e+001  2.300000e+002  2.500000e+002
      vertex  1.000000e+002  4.000000e+002  2.500000e+002
    endloop
  endfacet
  facet normal  0.000000e+000  0.000000e+000  1.000000e+000
    outer loop
      vertex  1.000000e+002  4.000000e+002  2.500000e+002
      vertex  8.000000e+001  2.300000e+002  2.500000e+002
      vertex  9.500000e+001  2.300000e+002  2.500000e+002
    endloop
  endfacet
  facet normal  -0.000000e+000  0.000000e+000  1.000000e+000
    outer loop
      vertex  1.000000e+002  4.000000e+002  2.500000e+002
      vertex  9.500000e+001  2.300000e+002  2.500000e+002
      vertex  1.000000e+002  2.000000e+002  2.500000e+002
    endloop
  endfacet
  facet normal  0.000000e+000  0.000000e+000  1.000000e+000
    outer loop
      vertex  1.000000e+002  2.000000e+002  2.500000e+002
      vertex  9.500000e+001  2.300000e+002  2.500000e+002
      vertex  9.500000e+001  2.050000e+002  2.500000e+002
    endloop
  endfacet
  facet normal  0.000000e+000  0.000000e+000  1.000000e+000
    outer loop
      vertex  1.000000e+002  2.000000e+002  2.500000e+002
      vertex  9.500000e+001  2.050000e+002  2.500000e+002
      vertex  5.000000e+001  2.000000e+002  2.500000e+002
    endloop
  endfacet
  facet normal  0.000000e+000  0.000000e+000  1.000000e+000
    outer loop
      vertex  5.000000e+001  2.000000e+002  2.500000e+002
      vertex  9.500000e+001  2.050000e+002  2.500000e+002
      vertex  5.500000e+001  2.050000e+002  2.500000e+002
    endloop
  endfacet
  facet normal  0.000000e+000  0.000000e+000  1.000000e+000
    outer loop
      vertex  5.000000e+001  2.000000e+002  2.500000e+002
      vertex  5.500000e+001  2.050000e+002  2.500000e+002
      vertex  5.000000e+001  4.000000e+002  2.500000e+002
    endloop
  endfacet
  facet normal  0.000000e+000  0.000000e+000  1.000000e+000
    outer loop
      vertex  5.000000e+001  4.000000e+002  2.500000e+002
      vertex  5.500000e+001  2.050000e+002  2.500000e+002
      vertex  5.500000e+001  2.300000e+002  2.500000e+002
    endloop
  endfacet
  facet normal  0.000000e+000  -0.000000e+000  9.999999e-001
    outer loop
      vertex  5.000000e+001  4.000000e+002  2.500000e+002
      vertex  5.500000e+001  2.300000e+002  2.500000e+002
      vertex  7.000000e+001  3.650000e+002  2.500000e+002
    endloop
  endfacet
  facet normal  0.000000e+000  0.000000e+000  1.000000e+000
    outer loop
      vertex  7.000000e+001  3.650000e+002  2.500000e+002
      vertex  5.500000e+001  2.300000e+002  2.500000e+002
      vertex  7.000000e+001  2.300000e+002  2.500000e+002
    endloop
  endfacet
  facet normal  0.000000e+000  -0.000000e+000  1.000000e+000
    outer loop
      vertex  5.000000e+001  4.000000e+002  2.500000e+002
      vertex  7.000000e+001  3.650000e+002  2.500000e+002
      vertex  1.000000e+002  4.000000e+002  2.500000e+002
    endloop
  endfacet
  facet normal  0.000000e+000  0.000000e+000  1.000000e+000
    outer loop
      vertex  1.000000e+002  4.000000e+002  2.500000e+002
      vertex  7.000000e+001  3.650000e+002  2.500000e+002
      vertex  8.000000e+001  3.650000e+002  2.500000e+002
    endloop
  endfacet
  facet normal  0.000000e+000  1.000000e+000  -0.000000e+000
    outer loop
      vertex  1.000000e+002  4.000000e+002  2.500000e+002
      vertex  1.000000e+002  4.000000e+002  1.900000e+002
      vertex  5.000000e+001  4.000000e+002  2.500000e+002
    endloop
  endfacet
  facet normal  0.000000e+000  1.000000e+000  0.000000e+000
    outer loop
      vertex  5.000000e+001  4.000000e+002  2.500000e+002
      vertex  1.000000e+002  4.000000e+002  1.900000e+002
      vertex  5.000000e+001  4.000000e+002  1.900000e+002
    endloop
  endfacet
  facet normal -1.000000e+000  0.000000e+000  0.000000e+000
    outer loop
      vertex  9.500000e+001  2.050000e+002  2.050000e+002
      vertex  9.500000e+001  2.050000e+002  2.500000e+002
      vertex  9.500000e+001  2.300000e+002  2.050000e+002
    endloop
  endfacet
  facet normal -1.000000e+000  0.000000e+000  0.000000e+000
    outer loop
      vertex  9.500000e+001  2.300000e+002  2.050000e+002
      vertex  9.500000e+001  2.050000e+002  2.500000e+002
      vertex  9.500000e+001  2.300000e+002  2.500000e+002
    endloop
  endfacet
  facet normal  1.000000e+000  0.000000e+000  0.000000e+000
    outer loop
      vertex  5.500000e+001  2.300000e+002  2.050000e+002
      vertex  5.500000e+001  2.300000e+002  2.500000e+002
      vertex  5.500000e+001  2.050000e+002  2.050000e+002
    endloop
  endfacet
  facet normal  1.000000e+000  0.000000e+000  0.000000e+000
    outer loop
      vertex  5.500000e+001  2.050000e+002  2.050000e+002
      vertex  5.500000e+001  2.300000e+002  2.500000e+002
      vertex  5.500000e+001  2.050000e+002  2.500000e+002
    endloop
  endfacet
  facet normal  0.000000e+000  0.000000e+000  1.000000e+000
    outer loop
      vertex  8.900000e+001  2.050000e+002  2.050000e+002
      vertex  9.500000e+001  2.050000e+002  2.050000e+002
      vertex  8.900000e+001  2.300000e+002  2.050000e+002
    endloop
  endfacet
  facet normal  -0.000000e+000  0.000000e+000  1.000000e+000
    outer loop
      vertex  8.900000e+001  2.300000e+002  2.050000e+002
      vertex  9.500000e+001  2.050000e+002  2.050000e+002
      vertex  9.500000e+001  2.300000e+002  2.050000e+002
    endloop
  endfacet
  facet normal  0.000000e+000  0.000000e+000  1.000000e+000
    outer loop
      vertex  5.500000e+001  2.050000e+002  2.050000e+002
      vertex  6.100000e+001  2.050000e+002  2.050000e+002
      vertex  5.500000e+001  2.300000e+002  2.050000e+002
    endloop
  endfacet
  facet normal  -0.000000e+000  0.000000e+000  1.000000e+000
    outer loop
      vertex  5.500000e+001  2.300000e+002  2.050000e+002
      vertex  6.100000e+001  2.050000e+002  2.050000e+002
      vertex  6.100000e+001  2.300000e+002  2.050000e+002
    endloop
  endfacet
endsolid CATIA STL
